<svg width="102" height="30" viewBox="0 0 102 30" fill="none" xmlns="http://www.w3.org/2000/svg">
<rect width="102" height="30" rx="4" fill="#2B88FB"/>
<g clip-path="url(#clip0_3531_6660)">
<path d="M22.6645 9.65667H24.1252V7.11267C23.8732 7.078 23.0065 7 21.9972 7C19.8912 7 18.4485 8.32467 18.4485 10.7593V13H16.1245V15.844H18.4485V23H21.2978V15.8447H23.5278L23.8818 13.0007H21.2972V11.0413C21.2978 10.2193 21.5192 9.65667 22.6645 9.65667V9.65667Z" fill="white"/>
</g>
<path d="M46.3159 18.6C45.5319 19.768 44.2839 20.28 42.9879 20.28C40.0759 20.28 38.2839 17.976 38.2839 15.336C38.2839 12.696 40.0599 10.392 42.9879 10.392C44.4279 10.392 45.5639 11.144 46.0439 11.88L47.0039 11.176C46.2199 10.072 44.6359 9.384 42.9719 9.384C39.5959 9.384 37.0679 11.896 37.0679 15.336C37.0679 18.776 39.5479 21.288 42.9719 21.288C45.0039 21.288 46.4599 20.312 47.2119 19.176L46.3159 18.6ZM50.2475 14.744V8.904H49.1595V21H50.2475V17.16C50.2475 15.16 51.3675 14.232 52.5195 14.232C54.0875 14.232 54.5515 15.288 54.5515 16.856V21H55.6395V16.408C55.6395 14.552 54.6955 13.32 52.7915 13.32C51.7355 13.32 50.6795 13.88 50.2795 14.744H50.2475ZM59.5596 13.512H58.4716V21H59.5596V13.512ZM59.7516 11.592C59.7516 11.16 59.3836 10.856 59.0156 10.856C58.6636 10.856 58.2956 11.16 58.2956 11.592C58.2956 12.008 58.6636 12.312 59.0156 12.312C59.3836 12.312 59.7516 12.008 59.7516 11.592ZM67.1756 16.408C64.4396 16.408 61.8956 16.616 61.8956 18.92C61.8956 20.584 63.3516 21.192 64.4876 21.192C65.6876 21.192 66.5196 20.776 67.2076 19.784H67.2396C67.2396 20.184 67.2876 20.632 67.3516 21H68.3276C68.2476 20.584 68.1996 19.896 68.1996 19.32V16.04C68.1996 14.216 66.9036 13.32 65.2876 13.32C64.0076 13.32 62.9516 13.784 62.3436 14.392L62.9516 15.112C63.4796 14.584 64.2956 14.232 65.1756 14.232C66.4716 14.232 67.1756 14.872 67.1756 16.168V16.408ZM67.1756 17.256V17.816C67.1756 19.144 66.3116 20.296 64.7756 20.296C63.9276 20.296 63.0156 19.944 63.0156 18.872C63.0156 17.448 65.0796 17.256 66.8556 17.256H67.1756ZM79.8185 14.664C79.3385 13.816 78.2345 13.32 77.1945 13.32C75.8345 13.32 74.5225 13.976 74.5225 15.496C74.5225 16.92 75.7865 17.304 76.6665 17.512C78.0905 17.848 78.8745 18.168 78.8745 18.952C78.8745 19.928 78.0425 20.264 77.1145 20.264C76.2345 20.264 75.4185 19.752 75.0345 19.096L74.1705 19.736C74.8585 20.744 75.9945 21.192 77.1305 21.192C78.5065 21.192 79.9465 20.584 79.9465 18.872C79.9465 17.704 79.1145 17.048 77.3545 16.68C76.1225 16.424 75.5625 16.104 75.5625 15.4C75.5625 14.568 76.3625 14.232 77.1465 14.232C77.9785 14.232 78.6665 14.664 78.9865 15.288L79.8185 14.664ZM86.0799 12.744V12.68C86.0639 12.472 86.0799 12.296 86.3359 12.152C86.6879 12.008 87.0719 11.704 87.0719 11.08C87.0719 10.344 86.3999 9.96 85.6159 9.96C84.9119 9.96 84.3999 10.328 84.1599 10.936L84.9119 11.224C85.0239 10.888 85.2959 10.744 85.6159 10.744C85.9679 10.744 86.2079 10.872 86.2079 11.16C86.2079 11.48 85.7759 11.608 85.5679 11.8C85.2639 12.072 85.2479 12.248 85.2639 12.616V12.744H86.0799ZM82.7199 16.68C82.8159 15.4 83.8879 14.232 85.3439 14.232C86.8959 14.232 87.7599 15.272 87.8239 16.68H82.7199ZM88.9279 17.032C88.9279 14.984 87.6959 13.32 85.3439 13.32C83.2159 13.32 81.5679 15 81.5679 17.256C81.5679 19.512 83.2159 21.192 85.4399 21.192C86.6719 21.192 87.7759 20.728 88.6559 19.608L87.8399 18.968C87.4239 19.64 86.5599 20.264 85.4399 20.264C83.9039 20.264 82.7359 19.048 82.7039 17.544H88.9119C88.9279 17.352 88.9279 17.176 88.9279 17.032Z" fill="white"/>
<defs>
<clipPath id="clip0_3531_6660">
<rect width="16" height="16" fill="white" transform="translate(12 7)"/>
</clipPath>
</defs>
</svg>
