<svg width="150" height="150" viewBox="0 0 150 150" fill="none" xmlns="http://www.w3.org/2000/svg">
<g clip-path="url(#clip0_4133_11997)">
<path d="M23.9102 108.021L86.2403 143.996L125.47 121.346L63.1515 85.3594L23.9102 108.021Z" fill="#E8EDF8"/>
<path d="M23.9102 108.021L86.2403 143.996L125.47 121.346L63.1515 85.3594L23.9102 108.021Z" fill="#B8C0CF"/>
<path d="M63.1533 29.3945V85.3586L23.912 108.02L14.6836 57.3766L63.1533 29.3945Z" fill="#E8EDF8"/>
<path opacity="0.7" d="M14.6836 57.3766L63.1533 29.3945V85.3586L23.912 108.02L14.6836 57.3766Z" fill="url(#paint0_linear_4133_11997)" fill-opacity="0.9"/>
<path opacity="0.4" d="M14.6836 57.3766L63.1533 29.3945V85.3586L23.912 108.02L14.6836 57.3766Z" fill="url(#paint1_linear_4133_11997)"/>
<path d="M134.711 70.7025L125.471 121.346L63.1523 85.3586V29.3945L134.711 70.7025Z" fill="#F9FBFF"/>
<path opacity="0.15" d="M134.711 70.7025L125.471 121.346L63.1523 85.3586V29.3945L134.711 70.7025Z" fill="url(#paint2_linear_4133_11997)"/>
<path d="M137.906 70.7028H134.735L63.1762 29.3949L14.7064 57.3769L15.4191 57.7926L11.5234 57.3769C11.554 57.0708 11.6645 56.778 11.8437 56.5279C12.023 56.2778 12.2648 56.0791 12.5449 55.9517L60.7058 28.1478C61.4678 27.7617 62.3101 27.5605 63.1643 27.5605C64.0186 27.5605 64.8608 27.7617 65.6229 28.1478L136.884 69.2776C137.122 69.432 137.906 70.0377 137.906 70.7028Z" fill="#03650C"/>
<path d="M98.7125 8.56255L97.0141 5.46267C97.5993 5.15869 98.249 5 98.9084 5C99.5679 5 100.218 5.15869 100.803 5.46267C101.33 5.81153 101.742 6.30966 101.985 6.8935C102.229 7.47735 102.292 8.12043 102.169 8.7407C100.316 16.4488 93.8548 44.0033 93.6529 44.2765L90.8262 42.6256L98.7125 8.56255Z" fill="#E8EDF8"/>
<path opacity="0.1" d="M98.7125 8.56255L97.0141 5.46267C97.5993 5.15869 98.249 5 98.9084 5C99.5679 5 100.218 5.15869 100.803 5.46267C101.33 5.81153 101.742 6.30966 101.985 6.8935C102.229 7.47735 102.292 8.12043 102.169 8.7407C100.316 16.4488 93.8548 44.0033 93.6529 44.2765L90.8262 42.6256L98.7125 8.56255Z" fill="black"/>
<path d="M103.272 6.99409C103.822 7.36174 104.293 7.83609 104.656 8.38898C105.019 8.94186 105.268 9.56204 105.387 10.2127L111.669 54.7393L108.51 52.9697L101.907 9.17945L99.5312 7.10099C100.102 6.78732 100.738 6.61401 101.389 6.59542C102.04 6.57683 102.685 6.71349 103.272 6.99409Z" fill="#E8EDF8"/>
<path d="M47.2383 34.2641L48.2478 37.8509L98.7129 8.56245L97.0145 5.48633L47.2383 34.2641Z" fill="#E8EDF8"/>
<path opacity="0.1" d="M47.2383 34.2641L48.2478 37.8509L98.7129 8.56245L97.0145 5.48633L47.2383 34.2641Z" fill="black"/>
<path d="M99.5544 7.0293L101.906 9.11963L50.1107 39.2989L48.2461 36.4009L99.5544 7.0293Z" fill="#E8EDF8"/>
<path opacity="0.8" d="M99.5544 7.0293L101.906 9.11963L50.1107 39.2989L48.2461 36.4009L99.5544 7.0293Z" fill="url(#paint3_linear_4133_11997)" fill-opacity="0.9"/>
<path d="M86.2421 98.6849L14.6836 57.377L18.8286 102.355C19.0718 104.074 19.6784 105.722 20.6082 107.188C21.538 108.654 22.7695 109.906 24.2208 110.859L81.3132 143.829C82.7031 144.527 84.2248 144.922 85.7785 144.99C87.3322 145.057 88.8825 144.795 90.3277 144.221L90.5415 144.138L90.6603 144.079L91.1591 143.829L125.163 124.232C126.617 123.281 127.852 122.031 128.784 120.564C129.716 119.098 130.324 117.449 130.567 115.728L134.712 70.7504L86.2421 98.6849ZM36.8341 106.666C36.8494 107.212 36.7355 107.753 36.5015 108.246C35.9594 108.199 35.4353 108.028 34.9694 107.747L33.1166 106.678C32.0434 105.977 31.15 105.033 30.5085 103.923C29.8669 102.813 29.495 101.568 29.4229 100.288V84.0288C29.4075 83.4834 29.5214 82.9421 29.7554 82.4492C30.3026 82.4981 30.831 82.6729 31.2994 82.9599L33.1522 84.0288C34.2245 84.73 35.1166 85.6739 35.7562 86.784C36.3959 87.8941 36.7651 89.1392 36.8341 90.4186V106.666ZM55.3027 117.355C55.3917 117.478 55.4538 117.618 55.4851 117.767C55.5164 117.915 55.5161 118.068 55.4842 118.217C55.4524 118.365 55.3897 118.505 55.3003 118.627C55.2108 118.75 55.0966 118.852 54.965 118.927C54.8335 119.003 54.6875 119.05 54.5367 119.065C54.3858 119.08 54.2334 119.064 54.0894 119.016C53.9454 118.969 53.813 118.892 53.7008 118.79C53.5885 118.688 53.499 118.563 53.438 118.424L51.5852 117.367C50.5105 116.665 49.6161 115.719 48.9744 114.607C48.3328 113.495 47.9618 112.248 47.8915 110.966V94.6943C47.8784 94.1503 47.988 93.6104 48.2122 93.1146C48.7606 93.1484 49.2916 93.32 49.7562 93.6135L51.6208 94.6824C52.6934 95.3862 53.5854 96.3322 54.225 97.4443C54.8645 98.5563 55.2337 99.8031 55.3027 101.084V117.355ZM73.7713 128.045C73.7828 128.59 73.669 129.13 73.4388 129.624C72.8967 129.577 72.3725 129.407 71.9066 129.125L70.0538 128.068C68.9791 127.366 68.0847 126.42 67.4431 125.308C66.8014 124.196 66.4304 122.949 66.3601 121.667V105.36C66.346 104.812 66.4556 104.268 66.6808 103.768C67.2289 103.812 67.7584 103.988 68.2248 104.279L70.0776 105.348C71.1527 106.047 72.0476 106.99 72.6894 108.101C73.3313 109.211 73.702 110.457 73.7713 111.738V128.045ZM105.186 122.201C105.115 123.483 104.744 124.731 104.103 125.843C103.461 126.955 102.567 127.9 101.492 128.603L99.6392 129.66C99.1772 129.951 98.6516 130.127 98.1071 130.171C97.8731 129.678 97.7592 129.136 97.7746 128.591V112.284C97.8439 111.002 98.2146 109.754 98.8563 108.642C99.4981 107.529 100.393 106.584 101.468 105.882L103.321 104.813C103.786 104.52 104.317 104.348 104.865 104.315C105.089 104.81 105.199 105.35 105.186 105.894V122.201ZM121.338 112.878C121.269 114.158 120.898 115.405 120.257 116.515C119.615 117.625 118.72 118.568 117.645 119.268L115.804 120.337C115.339 120.63 114.808 120.802 114.26 120.835C114.036 120.34 113.926 119.8 113.939 119.256V102.949C114.008 101.668 114.379 100.422 115.021 99.3116C115.663 98.2013 116.558 97.2582 117.633 96.559L119.474 95.49C119.939 95.1979 120.47 95.0265 121.018 94.9912C121.242 95.4827 121.352 96.0188 121.338 96.559V112.878Z" fill="#E8EDF8"/>
<path opacity="0.35" d="M86.2421 98.6849L14.6836 57.377L18.8286 102.355C19.0718 104.074 19.6784 105.722 20.6082 107.188C21.538 108.654 22.7695 109.906 24.2208 110.859L81.3132 143.829C82.703 144.527 84.2248 144.922 85.7785 144.99C87.3322 145.057 88.8825 144.795 90.3277 144.221L90.5415 144.138L90.6603 144.079L91.1591 143.829L125.163 124.232C126.617 123.281 127.852 122.031 128.784 120.564C129.716 119.098 130.324 117.449 130.567 115.728L134.712 70.7504L86.2421 98.6849ZM36.8341 106.666C36.8494 107.212 36.7355 107.753 36.5015 108.246C35.9594 108.199 35.4353 108.028 34.9694 107.747L33.1166 106.678C32.0434 105.977 31.15 105.033 30.5085 103.923C29.8669 102.813 29.495 101.568 29.4229 100.288V84.0288C29.4075 83.4834 29.5214 82.9421 29.7554 82.4492C30.3026 82.4981 30.831 82.6729 31.2994 82.9599L33.1522 84.0288C34.2245 84.73 35.1166 85.6739 35.7562 86.784C36.3959 87.8941 36.7651 89.1392 36.8341 90.4186V106.666ZM55.3027 117.355C55.3917 117.478 55.4538 117.618 55.4851 117.767C55.5164 117.915 55.5161 118.068 55.4842 118.217C55.4524 118.365 55.3897 118.505 55.3003 118.627C55.2108 118.75 55.0966 118.852 54.965 118.927C54.8335 119.003 54.6875 119.05 54.5367 119.065C54.3858 119.08 54.2334 119.064 54.0894 119.016C53.9454 118.969 53.813 118.892 53.7008 118.79C53.5885 118.688 53.499 118.563 53.438 118.424L51.5852 117.367C50.5105 116.665 49.6161 115.719 48.9744 114.607C48.3328 113.495 47.9618 112.248 47.8915 110.966V94.6943C47.8784 94.1503 47.988 93.6104 48.2122 93.1146C48.7606 93.1484 49.2916 93.32 49.7562 93.6135L51.6208 94.6824C52.6934 95.3862 53.5854 96.3322 54.225 97.4443C54.8645 98.5563 55.2337 99.8031 55.3027 101.084V117.355ZM73.7713 128.045C73.7828 128.59 73.669 129.13 73.4387 129.624C72.8966 129.577 72.3725 129.407 71.9066 129.125L70.0538 128.068C68.9791 127.366 68.0847 126.42 67.4431 125.308C66.8014 124.196 66.4304 122.949 66.3601 121.667V105.36C66.346 104.812 66.4556 104.268 66.6808 103.768C67.2289 103.812 67.7584 103.988 68.2248 104.279L70.0776 105.348C71.1527 106.047 72.0476 106.99 72.6894 108.101C73.3313 109.211 73.702 110.457 73.7713 111.738V128.045ZM105.186 122.201C105.115 123.483 104.744 124.731 104.103 125.843C103.461 126.955 102.567 127.9 101.492 128.603L99.6392 129.66C99.1772 129.951 98.6515 130.127 98.1071 130.171C97.8731 129.678 97.7592 129.136 97.7746 128.591V112.284C97.8439 111.002 98.2145 109.754 98.8563 108.642C99.4981 107.529 100.393 106.584 101.468 105.882L103.321 104.813C103.786 104.52 104.317 104.348 104.865 104.315C105.089 104.81 105.199 105.35 105.186 105.894V122.201ZM121.338 112.878C121.269 114.158 120.898 115.405 120.257 116.515C119.615 117.625 118.72 118.568 117.645 119.268L115.804 120.337C115.339 120.63 114.808 120.802 114.26 120.835C114.036 120.34 113.926 119.8 113.939 119.256V102.949C114.008 101.668 114.379 100.422 115.021 99.3116C115.663 98.2013 116.558 97.2582 117.633 96.559L119.474 95.49C119.939 95.1979 120.47 95.0265 121.018 94.9912C121.242 95.4827 121.352 96.0188 121.338 96.559V112.878Z" fill="white"/>
<g filter="url(#filter0_d_4133_11997)">
<path d="M86.2422 98.6845V140.978C86.2422 143.781 88.0119 145.1 90.3279 144.221L90.5416 144.138L90.6604 144.078L91.1593 143.829L125.163 124.232C126.617 123.281 127.852 122.031 128.784 120.564C129.716 119.097 130.324 117.449 130.567 115.728L134.712 70.75L86.2422 98.6845ZM105.186 122.141C105.116 123.423 104.745 124.671 104.103 125.783C103.461 126.895 102.567 127.841 101.492 128.543L99.6394 129.6C99.1773 129.892 98.6517 130.067 98.1072 130.111C97.8732 129.618 97.7593 129.077 97.7747 128.531V112.284C97.844 111.001 98.2147 109.754 98.8564 108.641C99.4982 107.529 100.393 106.584 101.468 105.882L103.321 104.813C103.786 104.52 104.317 104.348 104.865 104.314C105.089 104.81 105.199 105.35 105.186 105.894V122.141ZM121.338 112.818C121.269 114.099 120.899 115.345 120.257 116.455C119.615 117.566 118.72 118.509 117.645 119.208L115.804 120.277C115.339 120.57 114.808 120.742 114.26 120.776C114.036 120.28 113.926 119.74 113.939 119.196V102.948C114.009 101.668 114.379 100.422 115.021 99.3112C115.663 98.2009 116.558 97.2578 117.633 96.5586L119.474 95.4896C119.939 95.1975 120.47 95.0261 121.018 94.9908C121.242 95.4823 121.352 96.0184 121.338 96.5586V112.818Z" fill="white"/>
</g>
<path d="M107.025 106.94V123.199C106.958 124.479 106.589 125.725 105.949 126.835C105.31 127.946 104.416 128.889 103.343 129.589L101.49 130.658C99.9936 131.513 98.7109 131.24 98.1289 130.112C98.6733 130.068 99.199 129.892 99.661 129.601L101.514 128.544C102.589 127.842 103.483 126.896 104.125 125.784C104.766 124.672 105.137 123.424 105.208 122.142V105.895C105.221 105.351 105.111 104.811 104.887 104.315C106.122 104.256 107.025 105.23 107.025 106.94Z" fill="#A6BBC5"/>
<path d="M123.166 97.6156V113.863C123.098 115.144 122.728 116.391 122.086 117.502C121.444 118.612 120.548 119.555 119.472 120.253L117.631 121.322C116.134 122.189 114.852 121.916 114.258 120.776C114.806 120.742 115.337 120.57 115.802 120.277L117.643 119.208C118.718 118.509 119.613 117.566 120.255 116.455C120.896 115.345 121.267 114.099 121.336 112.818V96.5586C121.35 96.0185 121.24 95.4824 121.016 94.9908C122.287 94.9315 123.166 95.9054 123.166 97.6156Z" fill="#A6BBC5"/>
<path d="M137.907 70.7029V76.0357C137.879 76.3412 137.769 76.6336 137.59 76.8823C137.41 77.1309 137.167 77.3267 136.885 77.449L88.7007 105.229C87.9443 105.631 87.0986 105.835 86.2422 105.823V100.478C87.0976 100.494 87.9432 100.294 88.7007 99.8964L136.862 72.0925C137.162 71.9677 137.418 71.7566 137.598 71.4859C137.777 71.2152 137.873 70.8972 137.871 70.5723C137.896 70.6111 137.909 70.6567 137.907 70.7029Z" fill="#03650C"/>
<path d="M86.2415 100.478V105.823C85.3846 105.839 84.5378 105.635 83.783 105.229L12.5214 64.0871C12.2415 63.9627 11.9995 63.7665 11.8201 63.5182C11.6407 63.2699 11.5303 62.9786 11.5 62.6738C11.5 62.1512 11.5 57.8517 11.5 57.341C11.5 57.341 11.5 57.2698 11.5 57.2341C11.5024 57.5597 11.599 57.8776 11.7782 58.1495C11.9573 58.4214 12.2113 58.6356 12.5095 58.7663L83.7711 99.8961C84.5306 100.3 85.3816 100.5 86.2415 100.478Z" fill="#03650C"/>
<path d="M137.906 70.7029C137.876 71.0094 137.766 71.3027 137.587 71.553C137.408 71.8033 137.165 72.0017 136.884 72.1281L88.7235 99.932C87.9614 100.318 87.1192 100.519 86.2649 100.519C85.4107 100.519 84.5685 100.318 83.8064 99.932L12.5449 58.8022C12.2633 58.6768 12.0203 58.4787 11.8407 58.2282C11.6612 57.9777 11.5517 57.6839 11.5234 57.377H14.7064L63.1762 85.359L86.2649 98.6849L134.735 70.7029H137.906Z" fill="#E3F0D4"/>
<path d="M64.543 106.418V122.677C64.61 123.957 64.9785 125.203 65.6183 126.313C66.2581 127.424 67.1512 128.367 68.2248 129.067L70.0776 130.136C71.5741 130.991 72.8568 130.718 73.4388 129.578C72.8952 129.538 72.3694 129.367 71.9066 129.079L70.0538 128.01C68.9787 127.311 68.0838 126.368 67.442 125.257C66.8001 124.147 66.4295 122.901 66.3601 121.62V105.361C66.347 104.817 66.4566 104.277 66.6808 103.781C65.4575 103.71 64.543 104.695 64.543 106.418Z" fill="#ABBEC8"/>
<path d="M46.0742 95.7268V111.998C46.1432 113.278 46.5124 114.523 47.1521 115.633C47.7917 116.743 48.6838 117.687 49.7561 118.388L51.6089 119.457C53.1054 120.312 54.3881 120.039 54.9701 118.911C54.428 118.863 53.9038 118.693 53.4379 118.412L51.5851 117.343C50.5084 116.642 49.6126 115.697 48.9706 114.585C48.3287 113.472 47.9589 112.224 47.8914 110.941V94.6935C47.876 94.1481 47.99 93.6068 48.2239 93.1139C46.9531 93.0545 46.0742 94.0284 46.0742 95.7268Z" fill="#ABBEC8"/>
<path d="M27.6055 85.037V101.285C27.6748 102.567 28.0454 103.815 28.6872 104.927C29.3289 106.039 30.2238 106.985 31.2992 107.686L33.152 108.755C34.6366 109.61 35.9193 109.325 36.5013 108.197C35.9592 108.15 35.4351 107.979 34.9691 107.698L33.1163 106.629C32.0412 105.93 31.1463 104.987 30.5045 103.877C29.8626 102.766 29.492 101.52 29.4226 100.239V84.0275C29.4072 83.4821 29.5212 82.9408 29.7552 82.4479C28.4844 82.3885 27.6055 83.3742 27.6055 85.037Z" fill="#9AAFBA"/>
<path d="M35.2196 71.9023V72.3655C35.1134 73.0875 35.2434 73.8244 35.5901 74.4665C35.9368 75.1086 36.4818 75.6214 37.1437 75.9286C37.9632 76.3918 38.4026 75.8098 38.4026 74.8597V73.7314L35.2196 71.9023Z" fill="#E8EDF8"/>
<path opacity="0.1" d="M35.2196 71.9023V72.3655C35.1134 73.0875 35.2434 73.8244 35.5901 74.4665C35.9368 75.1086 36.4818 75.6214 37.1437 75.9286C37.9632 76.3918 38.4026 75.8098 38.4026 74.8597V73.7314L35.2196 71.9023Z" fill="black"/>
<path d="M44.8394 37.5313C45.2226 36.2066 46.0646 35.0615 47.2148 34.3008L48.2243 37.8639L38.3784 73.744L35.1953 71.915L44.8394 37.5313Z" fill="#E8EDF8"/>
<path opacity="0.1" d="M44.8394 37.5313C45.2226 36.2066 46.0646 35.0615 47.2148 34.3008L48.2243 37.8639L38.3784 73.744L35.1953 71.915L44.8394 37.5313Z" fill="black"/>
<path d="M48.3427 36.3418L50.1124 39.2873L56.811 84.3484L53.141 82.2343L46.68 39.6555C46.6264 39.0037 46.7531 38.3498 47.0464 37.7653C47.3397 37.1809 47.7882 36.6884 48.3427 36.3418Z" fill="white"/>
<path d="M53.1406 82.2461V82.6618C53.1406 84.4552 53.4138 85.7023 54.9697 86.5931C55.1542 86.7153 55.3693 86.7835 55.5905 86.79C55.8118 86.7966 56.0305 86.7411 56.2219 86.63C56.4133 86.5188 56.5699 86.3564 56.6739 86.161C56.7779 85.9656 56.8253 85.745 56.8106 85.5241V84.3364L53.1406 82.2461Z" fill="white"/>
</g>
<defs>
<filter id="filter0_d_4133_11997" x="81.2422" y="66.75" width="58.4707" height="83.7402" filterUnits="userSpaceOnUse" color-interpolation-filters="sRGB">
<feFlood flood-opacity="0" result="BackgroundImageFix"/>
<feColorMatrix in="SourceAlpha" type="matrix" values="0 0 0 0 0 0 0 0 0 0 0 0 0 0 0 0 0 0 127 0" result="hardAlpha"/>
<feOffset dy="1"/>
<feGaussianBlur stdDeviation="2.5"/>
<feComposite in2="hardAlpha" operator="out"/>
<feColorMatrix type="matrix" values="0 0 0 0 0.815686 0 0 0 0 0.843137 0 0 0 0 0.870588 0 0 0 0.7 0"/>
<feBlend mode="normal" in2="BackgroundImageFix" result="effect1_dropShadow_4133_11997"/>
<feBlend mode="normal" in="SourceGraphic" in2="effect1_dropShadow_4133_11997" result="shape"/>
</filter>
<linearGradient id="paint0_linear_4133_11997" x1="99.4896" y1="20.1144" x2="94.7127" y2="98.3615" gradientUnits="userSpaceOnUse">
<stop stop-color="white" stop-opacity="0"/>
<stop offset="0.979167" stop-color="white"/>
</linearGradient>
<linearGradient id="paint1_linear_4133_11997" x1="13.7485" y1="105.195" x2="106.103" y2="74.5228" gradientUnits="userSpaceOnUse">
<stop stop-color="#A5ADBA" stop-opacity="0"/>
<stop offset="1" stop-color="#A5ADBA"/>
</linearGradient>
<linearGradient id="paint2_linear_4133_11997" x1="61.7718" y1="118.043" x2="190.527" y2="64.0605" gradientUnits="userSpaceOnUse">
<stop stop-color="#A5ADBA" stop-opacity="0"/>
<stop offset="1" stop-color="#A5ADBA"/>
</linearGradient>
<linearGradient id="paint3_linear_4133_11997" x1="59.4904" y1="16.3811" x2="131.129" y2="48.1479" gradientUnits="userSpaceOnUse">
<stop stop-color="white"/>
<stop offset="1" stop-color="white" stop-opacity="0"/>
</linearGradient>
<clipPath id="clip0_4133_11997">
<rect width="150" height="150" fill="white"/>
</clipPath>
</defs>
</svg>
