<svg width="640" height="312" viewBox="0 0 640 312" fill="none" xmlns="http://www.w3.org/2000/svg">
<g clip-path="url(#clip0_4208_21447)">
<path d="M68.6669 304.762H608.109L588.857 147.839C567.852 5.16833 412.35 -42.1917 301.352 40.8853C256.281 67.0268 203.534 75.2976 152.07 69.7591C51.8579 60.1837 -18.1672 182.596 40.8494 263.802L68.6669 304.762Z" fill="#FAFAFA"/>
<path d="M19.9917 304.86L19.498 193.672H98.4857V134.398H239.001V207.868H398.327V147.436H509.348V184.75H593.62L607.319 304.86H19.9917Z" fill="#E7EEE7"/>
<path d="M449.3 91.2734H412.128C409.882 91.2734 407.907 92.7996 407.364 94.9904L361.553 277.981H364.934L410.375 96.4919C410.622 95.4581 411.56 94.7442 412.621 94.7442H449.325C450.287 94.7442 451.053 93.9811 451.053 93.0211C451.053 92.0611 450.263 91.2734 449.3 91.2734Z" fill="#2C333A"/>
<path d="M581.773 91.4219H544.526C542.28 91.4219 540.305 92.948 539.762 95.1388L493.951 278.13H497.333L542.774 96.6403C543.021 95.6065 543.959 94.8926 545.02 94.8926H581.773C582.735 94.8926 583.5 94.1296 583.5 93.1696C583.525 92.2096 582.735 91.4219 581.773 91.4219Z" fill="#2C333A"/>
<path d="M407.884 286.768C407.81 279.704 405.095 271.605 397.986 269.119C394.728 268.38 391.272 268.897 387.94 268.774C379.128 267.494 372.809 275.273 372.637 286.768C372.809 298.264 379.104 306.042 387.94 304.762C391.272 304.639 394.728 305.156 397.986 304.417C405.045 302.005 407.834 293.685 407.884 286.768Z" fill="#104D12"/>
<path d="M344.992 278.941C343.388 273.993 339.488 268.775 333.811 268.75C330.281 268.775 326.603 268.75 323.148 268.75C316.335 268.898 310.856 277.07 310.954 287.064C311.078 296.91 316.582 304.836 323.419 304.787C326.875 304.762 330.33 304.762 333.811 304.787C342.45 304.393 346.251 294.301 346.201 286.768C346.201 283.962 345.782 281.304 344.992 278.941Z" fill="#104D12"/>
<path d="M519.596 171.027H430.467V280.615H519.596V171.027Z" fill="#03650C"/>
<path d="M488.398 171.027H477.834V183.532H488.398V171.027Z" fill="#DEFFDD"/>
<path d="M445.227 171.027H310.953V280.615H445.227V171.027Z" fill="#00920D"/>
<path d="M386.038 171.027H370.143V183.532H386.038V171.027Z" fill="#DEFFDD"/>
<path d="M532.383 279.656H298.168V285.909H532.383V279.656Z" fill="#0D6210"/>
<path d="M415.263 279.656H298.168V285.909H415.263V279.656Z" fill="#104D12"/>
<path d="M512.119 268.751C509.404 268.776 506.689 268.776 503.973 268.751C485.56 266.142 484.499 304.197 501.653 304.764C504.368 304.739 507.083 304.739 509.799 304.764C528.212 307.373 529.298 269.342 512.119 268.751Z" fill="#104D12"/>
<path d="M524.534 286.771C524.213 310.475 500.073 310.475 499.752 286.771C500.073 263.066 524.213 263.066 524.534 286.771Z" fill="#0D6210"/>
<path d="M516.585 286.771C516.462 295.903 507.823 295.903 507.699 286.771C507.798 277.639 516.462 277.639 516.585 286.771Z" fill="#104D12"/>
<path d="M450.461 268.751C447.746 268.776 445.03 268.776 442.315 268.751C423.902 266.142 422.841 304.197 439.995 304.764C442.71 304.739 445.425 304.739 448.14 304.764C466.554 307.373 467.64 269.342 450.461 268.751Z" fill="#104D12"/>
<path d="M462.852 286.771C462.531 310.475 438.391 310.475 438.07 286.771C438.391 263.066 462.556 263.066 462.852 286.771Z" fill="#0D6210"/>
<path d="M454.903 286.771C454.78 295.903 446.141 295.903 446.018 286.771C446.141 277.639 454.805 277.639 454.903 286.771Z" fill="#104D12"/>
<path d="M305.327 83.1738L272.992 109.365L262.527 97.9431L248.951 110.3C250.556 112.072 260.058 122.386 261.367 123.912C266.624 130.042 276.892 130.066 282.174 123.962L311.621 91.3461L305.327 83.1738Z" fill="#F4D2C6"/>
<mask id="mask0_4208_21447" style="mask-type:luminance" maskUnits="userSpaceOnUse" x="248" y="83" width="64" height="46">
<path d="M305.327 83.1738L272.992 109.365L262.527 97.9431L248.951 110.3C250.556 112.072 260.058 122.386 261.367 123.912C266.624 130.042 276.892 130.066 282.174 123.962L311.621 91.3461L305.327 83.1738Z" fill="white"/>
</mask>
<g mask="url(#mask0_4208_21447)">
<path d="M272.992 109.365L264.106 128.565L254.332 119.949L269.808 105.008L272.992 109.365Z" fill="#EDA19D"/>
</g>
<path d="M323.173 138.607H293.233C291.629 138.607 290.32 137.303 290.32 135.703V91.5921C290.32 89.9921 291.629 88.6875 293.233 88.6875H323.198C324.802 88.6875 326.11 89.9921 326.11 91.5921V135.678C326.11 137.303 324.802 138.607 323.173 138.607Z" fill="#F3AC4A"/>
<path d="M322.581 92.5273H293.801V134.792H322.581V92.5273Z" fill="#F3F5FB"/>
<path d="M313.178 93.7081H303.23C302.589 93.7081 302.07 93.1912 302.07 92.5512V88.7604C302.07 88.1204 302.589 87.6035 303.23 87.6035H313.178C313.819 87.6035 314.338 88.1204 314.338 88.7604V92.5512C314.338 93.1912 313.819 93.7081 313.178 93.7081Z" fill="#D59032"/>
<path d="M320.162 99.5664H296.244V102.446H320.162V99.5664Z" fill="#D2D8E0"/>
<path d="M320.162 105.893H296.244V108.773H320.162V105.893Z" fill="#D2D8E0"/>
<path d="M320.162 112.193H296.244V115.073H320.162V112.193Z" fill="#D2D8E0"/>
<path d="M320.162 118.52H296.244V121.4H320.162V118.52Z" fill="#D2D8E0"/>
<path d="M313.004 124.846H296.244V127.726H313.004V124.846Z" fill="#D2D8E0"/>
<path d="M303.525 86.3979C303.081 90.1887 306.166 92.1333 309.128 93.6103C313.423 96.2441 319.396 91.9364 318.113 87.0133C317.644 83.5426 315.422 81.8441 312.164 81.0564C308.511 79.8995 303.822 82.4103 303.525 86.3979Z" fill="#F4D2C6"/>
<path d="M193.359 111.677L228.486 93.3027L217.273 71.9829L182.146 90.3571L193.359 111.677Z" fill="#03650C"/>
<path d="M180.677 115.765L192.081 108.158L184.108 94.1523C177.37 98.1154 166.262 102.226 166.41 111.679C167.027 115.543 161.918 158.472 166.09 160.343C171.001 165.931 176.432 161.352 180.949 158.054L174.63 157.98L180.677 115.765Z" fill="#F4D2C6"/>
<mask id="mask1_4208_21447" style="mask-type:luminance" maskUnits="userSpaceOnUse" x="164" y="94" width="29" height="69">
<path d="M180.677 115.765L192.081 108.158L184.108 94.1523C177.37 98.1154 166.262 102.226 166.41 111.679C167.027 115.543 161.918 158.472 166.09 160.343C171.001 165.931 176.432 161.352 180.949 158.054L174.63 157.98L180.677 115.765Z" fill="white"/>
</mask>
<g mask="url(#mask1_4208_21447)">
<path d="M179.098 94.4224L183.22 110.89L192.698 104.736L186.206 90.6562L179.098 94.4224Z" fill="#EDA19D"/>
</g>
<path d="M273.602 105.115L245.555 77.1445L228.485 94.1671L256.533 122.138L273.602 105.115Z" fill="#03650C"/>
<path d="M257.121 121.575L252.406 95.8516L260.379 118.325L257.121 121.575Z" fill="#0B5812"/>
<path d="M198.152 134.841L201.139 291.567H211.703L233.868 134.496L198.152 134.841Z" fill="#444642"/>
<path d="M227.919 176.588C212.567 196.92 207.951 264.416 206.717 293.683H215.998L227.475 221.88L227.919 176.588Z" fill="#383A37"/>
<path d="M257.835 134.841L254.849 291.567H243.766L222.119 134.496L257.835 134.841Z" fill="#444642"/>
<path d="M227.92 176.588C240.977 193.129 248.184 269.043 248.505 292.773H239.99L227.92 176.588Z" fill="#383A37"/>
<path d="M217.678 48.2203C218.492 53.0942 214.296 53.808 213.432 48.9342C212.643 44.0603 216.839 43.3465 217.678 48.2203Z" fill="#EDA19D"/>
<path d="M237.917 48.2203C237.102 53.0942 241.298 53.808 242.162 48.9342C242.952 44.0603 238.756 43.3465 237.917 48.2203Z" fill="#EDA19D"/>
<path d="M239.818 48.8355C239.522 68.0355 216.073 68.0355 215.777 48.8355C213.63 29.1925 241.324 28.9955 239.818 48.8355Z" fill="#F4D2C6"/>
<mask id="mask2_4208_21447" style="mask-type:luminance" maskUnits="userSpaceOnUse" x="215" y="34" width="25" height="30">
<path d="M239.818 48.8355C239.522 68.0355 216.073 68.0355 215.777 48.8355C213.63 29.1925 241.324 28.9955 239.818 48.8355Z" fill="white"/>
</mask>
<g mask="url(#mask2_4208_21447)">
<path d="M216.814 41.9178C216.814 41.9178 225.898 43.7886 238.091 40.4163L236.783 36.084L219.061 36.724L216.839 41.204" fill="#EDA19D"/>
</g>
<path d="M234.017 52.3555C230.883 52.3555 224.687 52.3555 221.553 52.3555C223.058 56.6385 219.775 78.0785 219.775 78.0785C223.799 78.0785 231.771 78.0785 235.795 78.0785C235.795 78.0539 232.512 56.6385 234.017 52.3555Z" fill="#F4D2C6"/>
<path d="M221.726 61.4141C221.726 61.4141 227.379 65.7464 233.846 61.4141L234.191 65.3033C234.191 65.3033 227.231 68.5525 221.381 65.3525L221.726 61.4141Z" fill="#EDA19D"/>
<path d="M217.406 38.4723C217.406 38.4723 233.129 40.0231 237.177 37.6108C241.225 35.1985 240.385 27.0508 240.385 27.0508C238.065 27.42 211.951 26.78 217.406 38.4723Z" fill="#59445A"/>
<path d="M217.702 33.2285C217.702 33.2285 213.309 34.5331 212.79 36.3301C212.272 38.127 215.95 45.0685 215.95 45.0685C216.937 45.0685 217.801 44.3793 218.023 43.4193L219.381 37.5608L217.702 33.2285Z" fill="#59445A"/>
<path d="M237.868 33.2285C237.868 33.2285 242.261 34.5331 242.78 36.3301C243.298 38.127 239.62 45.0685 239.62 45.0685C238.633 45.0931 237.72 44.2562 237.547 43.4193C237.522 43.2962 236.189 37.5608 236.189 37.5608L237.868 33.2285Z" fill="#59445A"/>
<path d="M236.189 38.0783C236.189 38.0783 239.744 36.0353 239.818 33.9922C239.818 33.9922 241.151 38.8906 236.189 38.0783Z" fill="#34254B"/>
<path d="M202.918 291.568L201.758 295.655L189.169 301.045C187.664 301.685 186.701 303.162 186.701 304.787H212.717L211.73 291.593H202.918V291.568Z" fill="#2C333A"/>
<path d="M252.554 291.568L253.714 295.655L266.302 301.045C267.808 301.685 268.77 303.162 268.77 304.787H242.779L243.767 291.593H252.554V291.568Z" fill="#2C333A"/>
<path d="M252.703 92.3554C250.333 76.6016 238.264 68.7001 224.737 70.4477C213.951 70.0539 204.226 81.0077 202.868 92.38C202.696 93.5124 194.057 150.423 194.057 150.423H261.515L252.703 92.3554Z" fill="#03650C"/>
<mask id="mask3_4208_21447" style="mask-type:luminance" maskUnits="userSpaceOnUse" x="194" y="70" width="68" height="81">
<path d="M252.703 92.3554C250.333 76.6016 238.264 68.7001 224.737 70.4477C213.951 70.0539 204.226 81.0077 202.868 92.38C202.696 93.5124 194.057 150.423 194.057 150.423H261.515L252.703 92.3554Z" fill="white"/>
</mask>
<g mask="url(#mask3_4208_21447)">
<path d="M220.762 151.875L233.178 138.607L207.162 96.4902L216.048 135.579L189.391 154.287L220.762 151.875Z" fill="#0B5812"/>
</g>
<path d="M207.173 96.4636L156.475 119.012L175.083 160.624L225.782 138.076L207.173 96.4636Z" fill="#F3AC4A"/>
<path d="M185.763 105.979L177.873 109.488L180.668 115.738L188.558 112.229L185.763 105.979Z" fill="#FDF1E6"/>
<path d="M170.756 154.287C173.446 154.878 178.605 154.706 179.099 158.349L170.756 158.767V154.287Z" fill="#F4D2C6"/>
<path d="M220.762 70.8914C223.205 78.0791 232.387 78.0791 234.806 70.8914C234.831 70.8914 228.808 67.6421 220.762 70.8914Z" fill="#F4D2C6"/>
<path d="M198.4 150.447H257.54L198.672 161.844L198.4 150.447Z" fill="#3A3D38"/>
<path d="M220.763 70.8906L227.477 76.306L224.713 78.0537C220.294 80.3675 219.554 74.2629 218.493 71.5306C218.468 71.5306 219.628 71.0137 220.763 70.8906Z" fill="#F3F5FB"/>
<path d="M229.154 76.1829L231.771 77.7829C233.597 78.9152 236.016 77.8568 236.411 75.7645L237.226 71.5799C237.226 71.5799 235.399 70.9645 234.831 70.8906L229.154 76.1829Z" fill="#F3F5FB"/>
<path d="M149.973 213.045H73.8262V304.786H149.973V213.045Z" fill="#00920D"/>
<path d="M117.785 213.045H106.012V221.956H117.785V213.045Z" fill="#FDF1E6"/>
<path d="M189.711 213.045H149.947V304.786H189.711V213.045Z" fill="#03650C"/>
<path d="M177 213.045H166.93V221.956H177V213.045Z" fill="#FDF1E6"/>
<path d="M456.187 61.4137H366.465C364.021 61.4137 362.047 59.4444 362.047 57.0075V27.4198C362.047 24.9829 364.021 23.0137 366.465 23.0137H456.187C458.631 23.0137 460.605 24.9829 460.605 27.4198V57.0321C460.605 59.4444 458.631 61.4137 456.187 61.4137Z" fill="white"/>
<path d="M453.051 29.3887H369.574V34.2133H453.051V29.3887Z" fill="#D2D8E0"/>
<path d="M453.051 39.8008H369.574V44.6254H453.051V39.8008Z" fill="#D2D8E0"/>
<path d="M424.987 50.2129H369.574V55.0375H424.987V50.2129Z" fill="#D2D8E0"/>
<path d="M146.764 67.7655C140.05 124.627 107.691 124.578 101.002 67.7655C101.496 37.7839 146.245 37.7839 146.764 67.7655Z" fill="#03650C"/>
<path d="M136.125 66.5847C135.854 82.6339 111.887 82.6339 111.615 66.5847C111.911 50.5108 135.854 50.5108 136.125 66.5847Z" fill="white"/>
<path d="M151.428 180.923H80.9095C79.6507 180.923 78.6387 179.914 78.6387 178.658V154.142C78.6387 152.886 79.6507 151.877 80.9095 151.877H151.428C152.687 151.877 153.699 152.886 153.699 154.142V178.658C153.699 179.914 152.687 180.923 151.428 180.923Z" fill="#E5E8E6"/>
<path d="M147.924 177.993H78.7383C76.8624 177.993 75.332 176.467 75.332 174.596V151.778C75.332 149.907 76.8624 148.381 78.7383 148.381H147.924C149.8 148.381 151.33 149.907 151.33 151.778V174.596C151.33 176.467 149.8 177.993 147.924 177.993Z" fill="white"/>
<path d="M145.506 153.279H81.1328V156.996H145.506V153.279Z" fill="#D2D8E0"/>
<path d="M145.506 161.305H81.1328V165.022H145.506V161.305Z" fill="#D2D8E0"/>
<path d="M123.859 169.354H81.1328V173.07H123.859V169.354Z" fill="#D2D8E0"/>
<path d="M348.965 225.82H310.953V252.356H348.965C350.643 252.356 352.025 251.002 352.025 249.303V228.848C352.025 227.174 350.643 225.82 348.965 225.82Z" fill="#0A9B3B"/>
<path d="M345.336 248.443H283.358C281.679 248.443 280.297 247.089 280.297 245.391V224.935C280.297 223.261 281.654 221.883 283.358 221.883H345.336C347.014 221.883 348.397 223.237 348.397 224.935V245.391C348.397 247.089 347.014 248.443 345.336 248.443Z" fill="white"/>
<path d="M343.165 226.314H285.506V229.638H343.165V226.314Z" fill="#D2D8E0"/>
<path d="M343.165 233.502H285.506V236.825H343.165V233.502Z" fill="#D2D8E0"/>
<path d="M323.789 240.715H285.506V244.038H323.789V240.715Z" fill="#D2D8E0"/>
<path d="M0 305.081C210.199 304.269 429.801 304.244 640 305.081C429.801 305.894 210.199 305.894 0 305.081Z" fill="#152E60"/>
</g>
<defs>
<clipPath id="clip0_4208_21447">
<rect width="640" height="312" fill="white"/>
</clipPath>
</defs>
</svg>
