<svg width="86" height="80" viewBox="0 0 86 80" fill="none" xmlns="http://www.w3.org/2000/svg">
<path d="M43.0004 79.738C66.7116 79.738 85.9334 74.4237 85.9334 67.868C85.9334 61.3124 66.7116 55.998 43.0004 55.998C19.2891 55.998 0.0673828 61.3124 0.0673828 67.868C0.0673828 74.4237 19.2891 79.738 43.0004 79.738Z" fill="#F8F9FB"/>
<path d="M61.5664 8.51953H25.0664C19.5436 8.51953 19.2598 12.9967 19.2598 18.5195V62.2637C19.2598 67.7865 23.7369 68.1205 29.2598 68.1205H57.2438C62.7666 68.1205 67.2438 67.7865 67.2438 62.2637V18.5195C67.2438 12.9967 67.0893 8.51953 61.5664 8.51953Z" fill="#CFD3D7"/>
<path d="M62.1929 68.7526H24.3109C22.8045 68.7507 21.3604 68.1515 20.2952 67.0863C19.23 66.0211 18.6308 64.577 18.6289 63.0706V13.5706C18.6318 12.0649 19.2315 10.6217 20.2966 9.55743C21.3616 8.49311 22.8052 7.89443 24.3109 7.89258H62.1929C63.6993 7.89337 65.1439 8.49158 66.2098 9.55602C67.2757 10.6204 67.876 12.0642 67.8789 13.5706V63.0706C67.8771 64.5777 67.2773 66.0224 66.2112 67.0877C65.1452 68.153 63.7 68.7518 62.1929 68.7526ZM24.3109 9.15258C23.139 9.15364 22.0153 9.61965 21.1867 10.4483C20.358 11.277 19.892 12.4006 19.8909 13.5726V63.0726C19.892 64.2445 20.358 65.3681 21.1867 66.1968C22.0153 67.0255 23.139 67.4915 24.3109 67.4926H62.1929C63.3648 67.4915 64.4885 67.0255 65.3171 66.1968C66.1458 65.3681 66.6118 64.2445 66.6129 63.0726V13.5726C66.6118 12.4006 66.1458 11.277 65.3171 10.4483C64.4885 9.61965 63.3648 9.15364 62.1929 9.15258H24.3109Z" fill="#C7CFD7"/>
<path d="M60.6994 52.4629H26.8174C25.7128 52.4629 24.8174 53.3583 24.8174 54.4629V54.5039C24.8174 55.6085 25.7128 56.5039 26.8174 56.5039H60.6994C61.804 56.5039 62.6994 55.6085 62.6994 54.5039V54.4629C62.6994 53.3583 61.804 52.4629 60.6994 52.4629Z" fill="#EFF2F7"/>
<path d="M60.6994 41.8555H26.8174C25.7128 41.8555 24.8174 42.7509 24.8174 43.8555V43.8965C24.8174 45.001 25.7128 45.8965 26.8174 45.8965H60.6994C61.804 45.8965 62.6994 45.001 62.6994 43.8965V43.8555C62.6994 42.7509 61.804 41.8555 60.6994 41.8555Z" fill="#EFF2F7"/>
<path d="M60.6994 30.2393H26.8174C25.7128 30.2393 24.8174 31.1347 24.8174 32.2393V32.2803C24.8174 33.3848 25.7128 34.2803 26.8174 34.2803H60.6994C61.804 34.2803 62.6994 33.3848 62.6994 32.2803V32.2393C62.6994 31.1347 61.804 30.2393 60.6994 30.2393Z" fill="#EFF2F7"/>
<path d="M60.6994 19.6318H26.8174C25.7128 19.6318 24.8174 20.5273 24.8174 21.6318V21.6728C24.8174 22.7774 25.7128 23.6728 26.8174 23.6728H60.6994C61.804 23.6728 62.6994 22.7774 62.6994 21.6728V21.6318C62.6994 20.5273 61.804 19.6318 60.6994 19.6318Z" fill="#EFF2F7"/>
<path d="M55.1222 67.5354C64.6066 67.5354 72.2952 59.9596 72.2952 50.6144C72.2952 41.2691 64.6066 33.6934 55.1222 33.6934C45.6378 33.6934 37.9492 41.2691 37.9492 50.6144C37.9492 59.9596 45.6378 67.5354 55.1222 67.5354Z" fill="white"/>
<path d="M55.1232 63.4935C62.3758 63.4935 68.2552 57.6141 68.2552 50.3615C68.2552 43.1089 62.3758 37.2295 55.1232 37.2295C47.8706 37.2295 41.9912 43.1089 41.9912 50.3615C41.9912 57.6141 47.8706 63.4935 55.1232 63.4935Z" fill="white"/>
<path d="M55.0187 63.8968C52.4215 63.8968 49.8825 63.1266 47.723 61.6837C45.5634 60.2407 43.8803 58.1898 42.8863 55.7902C41.8924 53.3907 41.6324 50.7503 42.1391 48.2029C42.6458 45.6555 43.8965 43.3156 45.733 41.4791C47.5695 39.6425 49.9094 38.3918 52.4568 37.8851C55.0042 37.3784 57.6446 37.6385 60.0441 38.6324C62.4437 39.6264 64.4946 41.3095 65.9376 43.4691C67.3805 45.6286 68.1507 48.1676 68.1507 50.7648C68.1468 54.2464 66.7619 57.5843 64.3001 60.0462C61.8382 62.508 58.5003 63.8928 55.0187 63.8968ZM55.0187 38.6418C52.6212 38.6418 50.2776 39.3528 48.2841 40.6847C46.2907 42.0167 44.7369 43.9099 43.8195 46.1249C42.902 48.3399 42.6619 50.7773 43.1296 53.1287C43.5974 55.4801 44.7519 57.6401 46.4472 59.3354C48.1425 61.0307 50.3024 62.1852 52.6538 62.6529C55.0053 63.1206 57.4426 62.8806 59.6576 61.9631C61.8726 61.0456 63.7658 59.4919 65.0978 57.4984C66.4298 55.505 67.1407 53.1613 67.1407 50.7638C67.137 47.55 65.8587 44.4689 63.5862 42.1964C61.3137 39.9238 58.2325 38.6455 55.0187 38.6418Z" fill="#CFD3D7"/>
<path d="M67.5514 61.8578L65.4951 63.9141L68.9218 67.3407L70.978 65.2844L67.5514 61.8578Z" fill="white"/>
<path d="M73.5431 65.794C72.4074 64.6584 70.5664 64.6582 69.4309 65.7937C68.2955 66.9291 68.2956 68.7702 69.4313 69.9059L73.2001 73.6748C74.3358 74.8104 76.1769 74.8106 77.3123 73.6751C78.4478 72.5397 78.4476 70.6986 77.312 69.5629L73.5431 65.794Z" fill="#BDC9D4"/>
<path d="M77.5817 69.833L73.2727 65.523C72.9333 65.1858 72.5049 64.952 72.0377 64.8489C71.5704 64.7459 71.0835 64.7778 70.6337 64.941L67.8337 62.141C70.8302 58.849 72.4389 54.5265 72.3238 50.0764C72.2087 45.6263 70.3787 41.3928 67.216 38.2601C64.0533 35.1273 59.8025 33.3377 55.3515 33.265C50.9006 33.1923 46.5936 34.8421 43.3302 37.8698C40.0669 40.8976 38.0996 45.0691 37.8392 49.513C37.5787 53.957 39.0454 58.3297 41.9328 61.7179C44.8202 65.106 48.905 67.2476 53.334 67.6952C57.763 68.1428 62.1937 66.8619 65.7007 64.12L68.5737 66.993C68.4106 67.4429 68.3788 67.9299 68.482 68.3972C68.5852 68.8645 68.8192 69.2927 69.1567 69.632L73.4657 73.941C73.7002 74.1757 73.9786 74.3618 74.285 74.4888C74.5915 74.6158 74.92 74.6812 75.2517 74.6812C75.5834 74.6812 75.9119 74.6158 76.2183 74.4888C76.5248 74.3618 76.8032 74.1757 77.0377 73.941L77.5777 73.401C77.8123 73.1666 77.9984 72.8881 78.1254 72.5817C78.2524 72.2752 78.3178 71.9468 78.3178 71.615C78.3178 71.2833 78.2524 70.9549 78.1254 70.6484C77.9984 70.342 77.8123 70.0635 77.5777 69.829L77.5817 69.833ZM39.2127 50.613C39.2127 47.4663 40.1458 44.3903 41.894 41.7739C43.6422 39.1575 46.127 37.1183 49.0342 35.9141C51.9413 34.7099 55.1403 34.3949 58.2266 35.0088C61.3128 35.6226 64.1477 37.1379 66.3727 39.363C68.5978 41.588 70.1131 44.4229 70.727 47.5092C71.3409 50.5954 71.0258 53.7944 69.8216 56.7015C68.6174 59.6087 66.5782 62.0935 63.9618 63.8417C61.3454 65.5899 58.2694 66.523 55.1227 66.523C50.9046 66.518 46.8608 64.8402 43.8782 61.8576C40.8955 58.8749 39.2177 54.8311 39.2127 50.613ZM67.5497 62.929L69.9047 65.284L68.9197 66.269L66.5647 63.914L67.5497 62.929ZM76.6877 72.512L76.1487 73.052C75.9082 73.282 75.5884 73.4103 75.2557 73.4103C74.923 73.4103 74.6031 73.282 74.3627 73.052L70.0497 68.743C69.9322 68.6259 69.8389 68.4867 69.7753 68.3335C69.7117 68.1802 69.679 68.016 69.679 67.85C69.679 67.6841 69.7117 67.5198 69.7753 67.3666C69.8389 67.2134 69.9322 67.0742 70.0497 66.957L70.5887 66.417C70.8256 66.1805 71.1468 66.0476 71.4817 66.0476C71.8165 66.0476 72.1377 66.1805 72.3747 66.417L76.6837 70.727C76.801 70.8442 76.8941 70.9833 76.9576 71.1364C77.0212 71.2896 77.0538 71.4537 77.0538 71.6195C77.0538 71.7853 77.0212 71.9495 76.9576 72.1027C76.8941 72.2558 76.801 72.3949 76.6837 72.512H76.6877Z" fill="#CFD3D7"/>
<path d="M53.4132 56.9429C53.4122 56.7204 53.4564 56.4999 53.5432 56.2949C53.6258 56.0969 53.7472 55.9174 53.9002 55.7669C54.2211 55.4545 54.6523 55.2813 55.1002 55.2849C55.3261 55.2833 55.5499 55.3275 55.7582 55.4149C55.9565 55.4976 56.1374 55.617 56.2912 55.7669C56.445 55.918 56.5682 56.0973 56.6542 56.2949C56.7432 56.5001 56.7891 56.7213 56.7891 56.9449C56.7891 57.1686 56.7432 57.3898 56.6542 57.5949C56.5674 57.7907 56.4442 57.9681 56.2912 58.1179C56.138 58.2671 55.9568 58.3847 55.7582 58.4639C55.549 58.5477 55.3255 58.5899 55.1002 58.5879C54.8716 58.5905 54.6447 58.5484 54.4322 58.4639C54.1284 58.3428 53.8684 58.1327 53.6864 57.861C53.5043 57.5893 53.4087 57.2689 53.4122 56.9419L53.4132 56.9429ZM56.4682 43.4189V49.3419C56.468 49.9646 56.4346 50.5868 56.3682 51.2059C56.3015 51.8199 56.2102 52.4583 56.0942 53.1209H54.1682C54.0509 52.4589 53.9592 51.8206 53.8932 51.2059C53.8268 50.5868 53.7934 49.9646 53.7932 49.3419V43.4189H56.4682Z" fill="#72B626"/>
<path d="M71.3544 7.11699C71.2258 7.11735 71.1001 7.07837 70.9942 7.00526C70.8883 6.93215 70.8073 6.82841 70.762 6.70796C70.7167 6.58751 70.7094 6.4561 70.7409 6.33134C70.7725 6.20659 70.8414 6.09446 70.9384 6.00999L74.1864 3.17699C74.249 3.12249 74.3216 3.08084 74.4002 3.05441C74.4788 3.02798 74.5618 3.01729 74.6446 3.02296C74.7273 3.02862 74.8081 3.05053 74.8824 3.08742C74.9567 3.12432 75.023 3.17548 75.0775 3.23799C75.132 3.3005 75.1736 3.37313 75.2 3.45174C75.2265 3.53035 75.2371 3.61339 75.2315 3.69612C75.2258 3.77886 75.2039 3.85967 75.167 3.93394C75.1301 4.00822 75.079 4.07449 75.0165 4.12899L71.7685 6.96199C71.6539 7.06229 71.5067 7.11739 71.3544 7.11699Z" fill="#CFD3D7"/>
<path d="M72.9769 9.38519C72.8114 9.38859 72.6511 9.32675 72.5307 9.21303C72.4103 9.09931 72.3395 8.94282 72.3334 8.77733C72.3274 8.61184 72.3867 8.4506 72.4984 8.32841C72.6102 8.20622 72.7656 8.13288 72.9309 8.12419L77.3599 7.79719C77.4428 7.7901 77.5262 7.79965 77.6054 7.82527C77.6845 7.85089 77.7577 7.89207 77.8207 7.94638C77.8837 8.0007 77.9351 8.06705 77.9721 8.14155C78.0091 8.21605 78.0308 8.29719 78.0359 8.38019C78.048 8.5471 77.9935 8.712 77.8842 8.83873C77.7749 8.96545 77.6198 9.04366 77.4529 9.05619L73.0239 9.38319L72.9769 9.38519Z" fill="#CFD3D7"/>
<path d="M69.0333 5.7012C68.8661 5.70093 68.7057 5.63437 68.5874 5.51609C68.4692 5.39781 68.4026 5.23747 68.4023 5.0702V0.894195C68.4023 0.726711 68.4689 0.566087 68.5873 0.447657C68.7057 0.329228 68.8663 0.262695 69.0338 0.262695C69.2013 0.262695 69.3619 0.329228 69.4804 0.447657C69.5988 0.566087 69.6653 0.726711 69.6653 0.894195V5.0692C69.6653 5.15219 69.649 5.23437 69.6172 5.31105C69.5855 5.38773 69.5389 5.4574 69.4802 5.51609C69.4215 5.57477 69.3519 5.62133 69.2752 5.65309C69.1985 5.68485 69.1163 5.7012 69.0333 5.7012Z" fill="#CFD3D7"/>
</svg>
