<svg width="257" height="280" viewBox="0 0 257 280" fill="none" xmlns="http://www.w3.org/2000/svg">
<g opacity="0.2">
<g opacity="0.6">
<path opacity="0.4" d="M127.307 4.72949C128.234 7.20277 128.955 9.36689 129.78 11.6341C131.635 16.4776 133.902 21.0119 136.272 25.5462C139.364 31.5233 142.868 37.2943 146.474 42.9622C149.257 47.3935 152.039 51.8248 155.234 56.05C160.284 62.8515 163.994 70.3744 166.364 78.5156C168.631 86.6568 169.043 94.9011 167.394 103.145C166.055 110.05 163.272 116.439 159.15 122.21C154.513 128.599 148.742 133.443 141.425 136.535C138.745 137.668 135.963 138.39 133.181 138.905C132.253 139.111 131.738 138.905 131.326 137.977C130.295 135.916 129.265 133.958 129.265 131.588C129.265 130.145 129.677 128.909 130.295 127.672C130.501 127.363 130.707 126.951 130.501 126.641C130.192 126.229 129.78 126.538 129.471 126.641C129.265 126.641 129.058 126.745 128.852 126.848C128.028 127.569 127.513 127.363 127.204 126.332C126.997 125.714 126.585 125.302 126.173 126.126C125.658 127.363 124.833 127.466 123.803 126.848C123.391 126.641 122.978 126.229 122.566 126.641C122.154 126.951 122.566 127.466 122.669 127.878C123.288 129.836 123.494 131.897 123.184 133.958C122.978 135.504 122.566 136.844 121.639 138.08C121.226 138.596 120.711 138.802 119.99 138.596C117.62 138.08 115.249 137.359 112.982 136.432C106.696 133.649 101.44 129.527 97.112 124.065C94.1234 120.355 91.8563 116.336 90.1044 111.905C87.425 105.103 86.0853 97.9927 86.4975 90.6759C86.8067 84.9049 88.1464 79.34 90.1044 73.8782C91.7532 68.9317 94.1234 64.2943 97.0089 60.0691C100.307 55.1225 104.017 50.4851 107.211 45.5386C110.2 41.1073 113.085 36.5729 115.765 31.9355C117.723 28.5348 119.578 25.134 121.226 21.6302C123.7 16.1684 125.967 10.8096 127.307 4.72949ZM150.081 88.5118C150.184 89.4392 149.051 89.6453 148.948 90.4698C148.742 91.7064 148.226 92.7369 147.608 93.8705C145.856 96.9621 143.177 99.1262 140.394 101.29C138.436 102.733 136.169 103.661 134.108 104.897C131.016 106.752 128.543 109.225 127.616 112.832C126.997 115.306 127.204 117.882 127.616 120.458C128.028 122.416 128.749 122.725 130.501 121.695C134.314 119.531 137.509 116.542 140.394 113.245C140.6 112.935 140.807 112.317 141.322 112.626C141.837 112.935 141.734 113.451 141.631 113.966C141.528 114.378 141.219 114.687 141.013 114.996C138.23 117.779 135.757 120.974 132.253 123.035C131.841 123.241 131.635 123.653 131.635 123.962C131.738 124.271 132.253 124.168 132.562 124.168C135.139 123.962 137.715 123.962 140.188 123.344C142.868 122.725 145.547 121.901 147.814 119.943C151.421 116.851 153.688 113.141 154.1 108.401C154.307 104.897 154.513 101.393 153.688 97.8896C152.658 94.695 152.039 91.3973 150.081 88.5118ZM126.894 115.306C126.791 114.378 126.894 113.245 126.585 112.111C125.864 109.329 124.009 107.474 122.051 105.619C119.681 103.351 116.589 102.012 114.116 99.9507C111.024 97.4774 108.86 94.4889 106.902 91.0881C106.799 90.7789 106.799 90.3667 106.284 90.4698C105.872 90.5728 106.078 90.985 106.078 91.2942C106.078 96.9621 107.623 102.218 110.2 107.164C112.261 111.08 114.94 114.584 118.135 117.573C119.99 119.325 121.948 120.974 124.215 122.21C124.833 122.519 125.555 122.828 125.864 121.798C126.482 119.737 126.997 117.676 126.894 115.306ZM105.665 91.8095C105.665 90.985 105.665 90.1606 105.665 89.3362C105.665 88.8209 105.872 88.2026 105.15 87.9965C104.532 87.8934 104.429 88.5118 104.223 88.924C102.574 92.2217 101.44 95.8285 101.028 99.4354C100.616 103.867 99.9975 108.298 101.749 112.729C102.368 114.275 103.089 115.718 104.223 116.954C108.345 121.489 113.497 123.653 119.578 123.859C120.196 123.859 121.329 124.271 121.536 123.756C121.742 123.138 120.814 122.622 120.196 122.21C116.383 118.912 113.291 114.996 110.715 110.668C107.211 104.794 105.768 98.4049 105.665 91.8095Z" fill="#72B626"/>
<path opacity="0.4" d="M161.207 237.627C165.02 238.142 168.936 238.657 172.748 239.379C179.55 240.615 186.352 242.161 193.05 244.016C197.275 245.253 201.603 246.489 205.726 247.932C211.187 249.89 216.443 252.054 221.699 254.527C225.1 256.176 228.5 257.825 231.798 259.783C234.89 261.535 237.981 263.493 240.97 265.554C243.031 266.997 245.195 268.543 247.153 270.192C250.554 273.077 253.954 275.963 256.943 279.776C255.088 279.157 253.542 278.23 252.099 277.508C249.111 276.066 246.122 274.726 243.134 273.386C232.725 268.749 222.008 265.142 211.084 262.05C202.84 259.68 194.39 257.825 185.836 256.279C179.962 255.249 173.985 254.218 168.008 253.6C161.722 252.879 155.436 252.26 149.149 251.848C139.462 251.23 129.775 251.024 119.985 251.23C113.287 251.333 106.588 251.745 99.8899 252.363C95.4586 252.776 91.0273 253.188 86.6991 253.703C81.4433 254.424 76.0846 255.146 70.8289 256.073C64.2335 257.207 57.638 258.547 51.1457 260.195C44.7564 261.741 38.4701 263.596 32.2869 265.657C26.8251 267.512 21.4664 269.47 16.1076 271.634C12.1916 273.283 8.3786 275.241 4.25647 276.581C5.59616 275.241 6.72975 273.798 8.17249 272.665C11.2641 270.088 14.4587 267.512 17.7564 265.142C23.6305 261.02 29.9167 257.619 36.4091 254.424C41.9739 251.745 47.7449 249.478 53.619 247.417C60.1113 245.047 66.8098 243.295 73.6113 241.646C77.2182 240.821 80.825 239.894 84.4319 239.482C86.6991 239.276 88.9662 238.657 91.2334 238.142C91.9548 238.142 92.367 238.657 92.9853 238.966C94.428 239.894 95.9738 239.791 97.3135 238.863C98.241 238.245 99.0654 237.524 99.9929 237.008C105.558 236.596 111.123 235.978 116.688 235.772C118.233 235.772 119.779 235.669 121.325 235.669C129.775 235.669 138.226 235.463 146.676 236.081C147.913 236.184 149.149 236.287 150.386 236.39C151.623 236.493 152.653 237.111 153.581 237.936C154.405 238.657 155.539 239.069 156.672 239.173C158.321 239.276 159.145 238.039 160.279 237.421C160.794 237.524 161 237.524 161.207 237.627C161.207 237.524 161.207 237.627 161.207 237.627Z" fill="#72B626"/>
<path opacity="0.4" d="M201.29 123.651C201.496 127.361 200.053 130.556 198.095 133.648C195.725 137.255 192.324 139.831 188.717 141.995C186.45 143.335 184.08 144.365 181.607 145.396C177.794 147.045 173.878 148.487 170.168 150.239C169.034 150.754 168.107 151.476 167.385 152.609C166.149 154.567 167.076 156.113 169.034 156.835C171.301 157.659 173.672 157.556 176.042 157.247C177.691 157.041 179.339 156.732 180.988 156.422C182.843 156.01 184.389 155.083 186.038 154.361C187.79 153.537 189.233 152.197 190.675 150.961C193.355 148.796 195.828 146.22 198.095 143.541C199.641 141.686 200.878 139.522 202.114 137.564C204.278 134.163 206.03 130.453 207.679 126.743C209.122 123.651 210.049 120.251 211.08 116.953C212.007 113.964 213.038 111.079 213.862 108.09C214.79 104.793 216.026 101.598 217.263 98.5065C218.5 95.621 219.839 92.7355 221.488 90.0562C222.416 88.5104 223.446 86.9645 225.095 86.0371C226.229 85.4188 227.156 85.4188 228.29 85.934C229.32 86.4493 229.733 87.2737 229.629 88.4073C229.526 90.1592 229.629 92.0142 228.599 93.663C228.187 94.3844 228.187 95.3119 227.981 96.1363C226.126 103.247 224.786 110.358 223.446 117.571C222.725 121.487 222.107 125.3 221.488 129.216C220.561 135.193 219.427 141.067 217.469 146.838C215.923 151.27 213.965 155.392 211.698 159.411C210.255 161.987 208.4 164.358 206.649 166.625C204.588 169.201 202.011 171.365 199.435 173.426C197.168 175.281 194.797 176.93 192.427 178.476C190.881 179.506 189.233 180.228 187.584 181.155C185.007 182.701 182.225 183.938 179.546 185.174C175.939 186.926 172.229 188.575 168.725 190.43C166.355 191.667 164.294 193.315 161.923 194.552C158.832 196.304 156.049 198.365 153.679 200.838C151.412 203.106 149.66 205.682 148.836 208.98C147.908 212.586 148.011 215.987 148.939 219.594C149.969 223.819 152.03 227.426 154.194 231.033C154.813 232.167 155.74 233.197 156.462 234.228C156.771 234.64 157.286 235.052 156.874 235.567C156.462 236.083 155.843 235.567 155.431 235.258C153.988 234.125 152.546 232.991 151.206 231.754C148.217 228.869 145.435 225.674 143.168 222.17C141.21 219.182 139.561 215.987 138.221 212.586C135.336 205.579 133.584 198.262 132.759 190.636C132.038 183.938 132.347 177.239 133.79 170.644C134.511 167.346 135.542 164.151 136.882 161.06C138.221 157.968 139.973 154.98 142.034 152.197C144.095 149.518 146.362 147.045 149.042 144.984C151.927 142.716 154.916 140.758 158.214 139.109C162.851 136.842 167.488 134.575 172.126 132.411C176.042 130.556 180.061 128.907 183.565 126.434C186.656 124.27 189.233 121.59 190.984 118.19C192.221 115.922 194.385 114.583 196.859 113.964C198.404 113.552 199.435 114.377 200.053 116.129C201.084 118.705 201.084 121.178 201.29 123.651Z" fill="#72B626"/>
<path opacity="0.4" d="M119.779 183.419C119.675 187.644 119.469 191.869 118.748 196.094C117.717 201.762 116.172 207.327 114.111 212.789C113.08 215.468 111.637 218.044 110.092 220.518C108.958 222.27 107.927 224.022 106.691 225.67C105.042 227.938 103.187 230.102 101.023 232.06C99.374 233.502 97.8282 235.151 95.9732 236.388C95.6641 236.594 95.2519 236.903 94.9427 236.594C94.5305 236.285 94.8396 235.873 95.1488 235.46C96.6946 233.193 98.3435 231.029 99.6831 228.556C102.466 223.609 104.527 218.457 104.114 212.583C103.908 209.388 102.878 206.503 100.817 203.823C99.477 202.071 98.0343 200.628 96.4885 199.186C93.1908 196.3 89.5839 193.93 85.771 191.869C83.0916 190.426 80.4122 188.88 77.6298 187.644C74.9504 186.51 72.4771 185.067 69.7977 183.831C67.2214 182.697 64.8512 181.358 62.4809 179.915C61.0382 179.09 59.5954 178.266 58.1527 177.338C55.9886 175.999 53.9275 174.453 52.0726 172.701C50.1145 170.949 48.1565 169.197 46.4046 167.239C43.9314 164.354 41.6642 161.365 39.9123 158.067C38.3665 155.182 36.8207 152.297 35.6871 149.205C34.7596 146.629 33.9352 144.052 33.4199 141.373C32.9047 138.797 32.1833 136.22 31.668 133.644C31.0497 130.14 30.3283 126.739 29.8131 123.236C29.1947 118.701 28.3703 114.167 27.5459 109.632C26.5154 104.171 25.2787 98.8119 23.7329 93.5562C23.2177 91.5982 22.7024 89.7432 23.0115 87.7852C23.2177 86.2394 24.3512 85.415 25.897 85.6211C27.1337 85.8272 28.2673 86.4455 28.9886 87.476C31.668 90.7737 33.4199 94.6898 35.1718 98.5027C37.0268 102.625 38.4695 106.953 39.7062 111.384C41.1489 116.64 42.7978 121.793 44.8588 126.739C46.4046 130.449 48.3626 133.953 50.3207 137.457C51.7634 139.93 53.3092 142.3 55.1642 144.464C57.3283 146.938 59.5954 149.514 62.2748 151.575C64.3359 153.224 66.6031 154.564 68.9733 155.697C70.2099 156.316 71.5496 156.728 72.8893 156.934C75.8779 157.552 78.8664 157.758 81.958 157.552C84.7404 157.346 86.1832 155.285 85.2557 153.224C84.8435 152.193 84.0191 151.575 83.0916 150.957C80 149.205 76.5992 148.071 73.3015 146.629C70.6221 145.392 67.8397 144.258 65.1603 142.919C60.2138 140.445 56.2977 137.045 53.5153 132.407C51.7634 129.419 51.1451 126.224 51.3512 122.823C51.4542 120.968 51.4542 119.01 52.0726 117.258C52.897 114.579 54.7519 113.858 57.3283 115.094C60.0076 116.434 61.5534 118.701 62.8931 121.174C64.0267 123.132 65.6756 124.575 67.4275 125.915C69.6947 127.667 72.271 129.006 74.7443 130.449C78.9694 132.819 83.6068 134.262 87.832 136.529C91.2328 138.281 94.7366 139.93 98.0343 141.991C100.611 143.64 103.084 145.495 105.454 147.35C107.927 149.308 109.885 151.781 111.637 154.461C114.214 158.274 115.966 162.499 117.202 166.93C118.233 170.434 119.16 173.835 119.572 177.441C119.572 179.193 119.779 181.254 119.779 183.419Z" fill="#72B626"/>
<path opacity="0.4" d="M58.1433 142.613C58.1433 142.712 58.1433 142.712 58.1433 142.613C58.0448 142.712 58.0448 142.613 57.9463 142.613C58.0448 142.613 58.0448 142.613 58.1433 142.613Z" fill="white"/>
</g>
</g>
</svg>
