<svg width="255" height="436" viewBox="0 0 255 436" fill="none" xmlns="http://www.w3.org/2000/svg">
<g clip-path="url(#clip0_2614_6456)">
<g opacity="0.1">
<path d="M206.219 0C207.773 4.14494 208.982 7.77177 210.364 11.5713C213.472 19.6885 217.272 27.2875 221.244 34.8866C226.425 44.9035 232.297 54.5751 238.342 64.0739C243.005 71.5003 247.668 78.9266 253.022 86.0075C261.485 97.4061 267.702 110.014 271.674 123.657C275.474 137.301 276.165 151.118 273.401 164.934C271.156 176.505 266.493 187.213 259.585 196.885C251.813 207.593 242.142 215.71 229.879 220.891C225.389 222.791 220.726 224 216.063 224.863C214.509 225.209 213.645 224.863 212.954 223.309C211.227 219.855 209.5 216.573 209.5 212.601C209.5 210.183 210.191 208.111 211.227 206.038C211.573 205.52 211.918 204.829 211.573 204.311C211.054 203.62 210.364 204.138 209.846 204.311C209.5 204.311 209.155 204.484 208.809 204.657C207.428 205.865 206.564 205.52 206.046 203.793C205.701 202.757 205.01 202.066 204.319 203.448C203.455 205.52 202.074 205.693 200.347 204.657C199.656 204.311 198.965 203.62 198.274 204.311C197.583 204.829 198.274 205.693 198.447 206.384C199.483 209.665 199.829 213.119 199.31 216.573C198.965 219.164 198.274 221.409 196.72 223.481C196.029 224.345 195.166 224.69 193.957 224.345C189.984 223.481 186.012 222.273 182.213 220.718C171.678 216.055 162.87 209.147 155.616 199.993C150.607 193.776 146.808 187.04 143.872 179.614C139.382 168.216 137.136 156.299 137.827 144.037C138.345 134.365 140.59 125.039 143.872 115.886C146.635 107.596 150.607 99.824 155.443 92.7431C160.97 84.4532 167.187 76.6814 172.541 68.3915C177.55 60.9652 182.385 53.3661 186.876 45.5944C190.157 39.8951 193.266 34.1958 196.029 28.3238C200.174 19.1704 203.974 10.1896 206.219 0ZM244.387 140.41C244.559 141.964 242.66 142.31 242.487 143.691C242.142 145.764 241.278 147.491 240.242 149.391C237.306 154.572 232.815 158.199 228.152 161.825C224.871 164.243 221.071 165.798 217.617 167.87C212.436 170.979 208.291 175.124 206.737 181.168C205.701 185.313 206.046 189.631 206.737 193.949C207.428 197.23 208.637 197.748 211.573 196.021C217.963 192.394 223.317 187.386 228.152 181.859C228.498 181.341 228.843 180.305 229.707 180.823C230.57 181.341 230.398 182.205 230.225 183.068C230.052 183.759 229.534 184.277 229.189 184.795C224.526 189.458 220.381 194.812 214.509 198.266C213.818 198.612 213.472 199.303 213.472 199.821C213.645 200.339 214.509 200.166 215.027 200.166C219.344 199.821 223.662 199.821 227.807 198.784C232.297 197.748 236.788 196.367 240.587 193.085C246.632 187.904 250.431 181.687 251.122 173.742C251.468 167.87 251.813 161.998 250.431 156.126C248.704 150.772 247.668 145.246 244.387 140.41ZM205.528 185.313C205.355 183.759 205.528 181.859 205.01 179.96C203.801 175.296 200.692 172.188 197.411 169.079C193.438 165.28 188.257 163.034 184.112 159.58C178.931 155.435 175.304 150.427 172.023 144.728C171.85 144.209 171.85 143.519 170.987 143.691C170.296 143.864 170.641 144.555 170.641 145.073C170.641 154.572 173.232 163.38 177.55 171.67C181.004 178.232 185.494 184.105 190.848 189.113C193.957 192.049 197.238 194.812 201.038 196.885C202.074 197.403 203.283 197.921 203.801 196.194C204.837 192.74 205.701 189.286 205.528 185.313ZM169.95 145.936C169.95 144.555 169.95 143.173 169.95 141.792C169.95 140.928 170.296 139.892 169.087 139.546C168.051 139.374 167.878 140.41 167.533 141.101C164.769 146.627 162.87 152.672 162.179 158.717C161.488 166.143 160.452 173.569 163.388 180.996C164.424 183.586 165.633 186.004 167.533 188.077C174.441 195.676 183.076 199.303 193.266 199.648C194.302 199.648 196.202 200.339 196.547 199.475C196.893 198.439 195.338 197.576 194.302 196.885C187.912 191.358 182.731 184.795 178.413 177.542C172.541 167.697 170.123 156.99 169.95 145.936Z" fill="white"/>
<path d="M263.031 390.309C269.421 391.173 275.984 392.036 282.374 393.245C293.773 395.318 305.171 397.908 316.397 401.017C323.478 403.09 330.732 405.162 337.64 407.58C346.793 410.861 355.602 414.488 364.41 418.633C370.109 421.396 375.808 424.16 381.335 427.441C386.516 430.377 391.697 433.659 396.706 437.113C400.16 439.531 403.786 442.121 407.068 444.884C412.767 449.72 418.466 454.556 423.475 460.946C420.366 459.91 417.776 458.355 415.358 457.147C410.349 454.729 405.341 452.483 400.332 450.238C382.889 442.467 364.928 436.422 346.621 431.241C332.804 427.268 318.642 424.16 304.308 421.569C294.464 419.842 284.447 418.115 274.43 417.079C263.895 415.87 253.36 414.834 242.825 414.143C226.59 413.107 210.356 412.761 193.949 413.107C182.723 413.279 171.497 413.97 160.271 415.006C152.845 415.697 145.418 416.388 138.165 417.251C129.357 418.46 120.376 419.669 111.568 421.224C100.515 423.123 89.4617 425.369 78.5812 428.132C67.8734 430.723 57.3384 433.831 46.976 437.285C37.8226 440.394 28.8419 443.675 19.8612 447.302C13.2984 450.066 6.90824 453.347 0 455.592C2.24518 453.347 4.14494 450.929 6.56282 449.029C11.744 444.712 17.0979 440.394 22.6245 436.422C32.4687 429.514 43.0038 423.814 53.8843 418.46C63.2104 413.97 72.8819 410.171 82.7261 406.716C93.6066 402.744 104.833 399.808 116.231 397.045C122.276 395.663 128.321 394.109 134.365 393.418C138.165 393.073 141.964 392.036 145.764 391.173C146.973 391.173 147.664 392.036 148.7 392.555C151.118 394.109 153.708 393.936 155.953 392.382C157.508 391.346 158.889 390.137 160.444 389.273C169.77 388.582 179.096 387.546 188.422 387.201C191.013 387.201 193.603 387.028 196.194 387.028C210.356 387.028 224.518 386.683 238.68 387.719C240.752 387.891 242.825 388.064 244.897 388.237C246.969 388.41 248.697 389.446 250.251 390.827C251.633 392.036 253.532 392.727 255.432 392.9C258.195 393.073 259.577 391 261.477 389.964C262.34 390.137 262.686 390.137 263.031 390.309C263.031 390.137 263.031 390.309 263.031 390.309Z" fill="white"/>
<path d="M330.206 199.301C330.552 205.518 328.134 210.872 324.853 216.053C320.88 222.098 315.181 226.416 309.136 230.042C305.337 232.288 301.365 234.015 297.22 235.742C290.829 238.505 284.267 240.923 278.049 243.859C276.149 244.722 274.595 245.931 273.386 247.831C271.314 251.113 272.868 253.703 276.149 254.912C279.949 256.294 283.921 256.121 287.893 255.603C290.657 255.258 293.42 254.739 296.183 254.221C299.292 253.53 301.883 251.976 304.646 250.767C307.582 249.386 310 247.14 312.418 245.068C316.908 241.441 321.053 237.123 324.853 232.633C327.443 229.524 329.516 225.897 331.588 222.616C335.215 216.917 338.151 210.699 340.914 204.482C343.332 199.301 344.886 193.601 346.613 188.075C348.168 183.066 349.895 178.231 351.277 173.222C352.831 167.696 354.903 162.342 356.976 157.161C359.048 152.325 361.293 147.489 364.057 142.999C365.611 140.408 367.338 137.817 370.101 136.263C372.001 135.227 373.556 135.227 375.455 136.09C377.182 136.954 377.873 138.336 377.701 140.235C377.528 143.171 377.701 146.28 375.973 149.043C375.283 150.252 375.283 151.807 374.937 153.188C371.829 165.105 369.583 177.022 367.338 189.111C366.129 195.674 365.093 202.064 364.057 208.627C362.502 218.644 360.603 228.488 357.321 238.16C354.731 245.586 351.449 252.494 347.65 259.23C345.232 263.547 342.123 267.52 339.187 271.319C335.733 275.637 331.415 279.264 327.098 282.718C323.298 285.826 319.326 288.59 315.354 291.18C312.763 292.907 310 294.116 307.237 295.671C302.919 298.261 298.256 300.334 293.765 302.406C287.721 305.342 281.503 308.106 275.631 311.214C271.659 313.287 268.205 316.05 264.233 318.122C259.052 321.058 254.389 324.513 250.416 328.658C246.617 332.457 243.681 336.775 242.299 342.301C240.745 348.346 240.917 354.045 242.472 360.09C244.199 367.171 247.653 373.216 251.28 379.26C252.316 381.16 253.87 382.887 255.079 384.614C255.597 385.305 256.461 385.996 255.77 386.859C255.079 387.723 254.043 386.859 253.352 386.341C250.934 384.441 248.517 382.542 246.271 380.469C241.263 375.634 236.6 370.28 232.8 364.408C229.519 359.399 226.756 354.045 224.51 348.346C219.675 336.602 216.739 324.34 215.357 311.56C214.148 300.334 214.666 289.108 217.084 278.055C218.293 272.528 220.02 267.174 222.265 261.993C224.51 256.812 227.446 251.803 230.901 247.14C234.355 242.65 238.154 238.505 242.645 235.051C247.48 231.251 252.489 227.97 258.015 225.207C265.787 221.407 273.559 217.608 281.331 213.981C287.893 210.872 294.629 208.109 300.501 203.964C305.682 200.337 310 195.847 312.936 190.147C315.008 186.348 318.635 184.103 322.78 183.066C325.371 182.376 327.098 183.757 328.134 186.693C329.861 191.011 329.861 195.156 330.206 199.301Z" fill="white"/>
<path d="M193.602 299.464C193.429 306.545 193.084 313.626 191.875 320.707C190.148 330.206 187.557 339.532 184.103 348.685C182.376 353.175 179.958 357.493 177.367 361.638C175.468 364.574 173.741 367.51 171.668 370.273C168.905 374.073 165.796 377.7 162.169 380.981C159.406 383.399 156.815 386.162 153.707 388.235C153.188 388.58 152.498 389.098 151.98 388.58C151.289 388.062 151.807 387.371 152.325 386.68C154.916 382.881 157.679 379.254 159.924 375.109C164.587 366.819 168.041 358.184 167.35 348.34C167.005 342.986 165.278 338.15 161.824 333.66C159.579 330.724 157.161 328.306 154.57 325.888C149.044 321.052 142.999 317.08 136.609 313.626C132.118 311.208 127.628 308.617 122.965 306.545C118.475 304.645 114.33 302.227 109.839 300.155C105.522 298.255 101.549 296.01 97.5772 293.592C95.1593 292.21 92.7414 290.829 90.3235 289.274C86.6967 287.029 83.2426 284.439 80.1339 281.503C76.8525 278.567 73.5711 275.631 70.6351 272.349C66.4901 267.513 62.6906 262.505 59.7546 256.978C57.164 252.143 54.5734 247.307 52.6737 242.126C51.1193 237.808 49.7377 233.49 48.8741 229C48.0106 224.682 46.8017 220.365 45.9381 216.047C44.9019 210.175 43.693 204.476 42.8294 198.604C41.7932 191.005 40.4115 183.406 39.0299 175.807C37.3028 166.653 35.2304 157.672 32.6398 148.864C31.7762 145.583 30.9127 142.474 31.4308 139.193C31.7762 136.602 33.676 135.221 36.2666 135.566C38.3391 135.911 40.2388 136.948 41.4478 138.675C45.9381 144.201 48.8741 150.764 51.8101 157.154C54.9188 164.062 57.3367 171.316 59.4092 178.743C61.8271 187.551 64.5904 196.186 68.0445 204.476C70.6351 210.693 73.9165 216.565 77.1979 222.437C79.6158 226.582 82.2064 230.554 85.3151 234.181C88.9419 238.326 92.7414 242.644 97.2318 246.098C100.686 248.861 104.485 251.106 108.458 253.006C110.53 254.042 112.775 254.733 115.021 255.079C120.029 256.115 125.037 256.46 130.219 256.115C134.882 255.769 137.3 252.315 135.745 248.861C135.054 247.134 133.673 246.098 132.118 245.062C126.937 242.126 121.238 240.226 115.711 237.808C111.221 235.735 106.558 233.836 102.068 231.591C93.7777 227.446 87.2148 221.746 82.5518 213.975C79.6158 208.966 78.5796 203.612 78.925 197.913C79.0977 194.804 79.0977 191.523 80.1339 188.587C81.5155 184.096 84.6242 182.887 88.9419 184.96C93.4323 187.205 96.0228 191.005 98.268 195.15C100.168 198.431 102.931 200.849 105.867 203.094C109.667 206.03 113.984 208.275 118.129 210.693C125.21 214.665 132.982 217.083 140.063 220.883C145.762 223.819 151.634 226.582 157.161 230.036C161.478 232.799 165.623 235.908 169.596 239.017C173.74 242.298 177.022 246.443 179.958 250.934C184.276 257.324 187.212 264.405 189.284 271.831C191.011 277.703 192.565 283.402 193.256 289.447C193.256 292.383 193.602 295.837 193.602 299.464Z" fill="white"/>
</g>
</g>
<defs>
<clipPath id="clip0_2614_6456">
<rect width="302" height="435.165" fill="white"/>
</clipPath>
</defs>
</svg>
