<svg width="544" height="592" viewBox="0 0 544 592" fill="none" xmlns="http://www.w3.org/2000/svg">
<g opacity="0.6">
<path opacity="0.4" d="M269.162 10C271.123 15.2292 272.648 19.8048 274.391 24.5982C278.313 34.8388 283.106 44.4257 288.118 54.0126C294.654 66.6498 302.062 78.8513 309.688 90.8349C315.571 100.204 321.454 109.573 328.208 118.506C338.885 132.887 346.729 148.792 351.74 166.005C356.533 183.218 357.405 200.648 353.919 218.079C351.086 232.677 345.203 246.186 336.488 258.388C326.683 271.897 314.482 282.137 299.012 288.674C293.347 291.07 287.464 292.595 281.581 293.685C279.62 294.121 278.531 293.685 277.659 291.724C275.481 287.366 273.302 283.226 273.302 278.215C273.302 275.165 274.173 272.55 275.481 269.936C275.916 269.282 276.352 268.41 275.916 267.757C275.263 266.885 274.391 267.539 273.737 267.757C273.302 267.757 272.866 267.975 272.43 268.192C270.687 269.718 269.598 269.282 268.944 267.103C268.508 265.796 267.637 264.924 266.765 266.667C265.676 269.282 263.933 269.5 261.754 268.192C260.882 267.757 260.011 266.885 259.139 267.757C258.268 268.41 259.139 269.5 259.357 270.371C260.664 274.511 261.1 278.869 260.447 283.226C260.011 286.495 259.139 289.327 257.178 291.942C256.307 293.031 255.217 293.467 253.692 293.031C248.681 291.942 243.669 290.417 238.876 288.456C225.585 282.573 214.473 273.857 205.322 262.31C199.003 254.466 194.21 245.968 190.506 236.599C184.841 222.219 182.008 207.185 182.88 191.715C183.534 179.514 186.366 167.748 190.506 156.2C193.992 145.742 199.003 135.937 205.104 127.004C212.076 116.545 219.92 106.74 226.675 96.282C232.993 86.913 239.094 77.3261 244.759 67.5214C248.899 60.3312 252.821 53.141 256.307 45.733C261.536 34.1851 266.329 22.8552 269.162 10ZM317.314 187.14C317.532 189.101 315.135 189.536 314.918 191.279C314.482 193.894 313.392 196.073 312.085 198.47C308.381 205.006 302.716 209.582 296.833 214.157C292.693 217.208 287.9 219.169 283.542 221.783C277.006 225.705 271.776 230.934 269.816 238.56C268.508 243.789 268.944 249.237 269.816 254.684C270.687 258.823 272.212 259.477 275.916 257.298C283.978 252.723 290.732 246.404 296.833 239.432C297.269 238.778 297.705 237.471 298.794 238.124C299.884 238.778 299.666 239.868 299.448 240.957C299.23 241.829 298.576 242.482 298.14 243.136C292.258 249.019 287.028 255.773 279.62 260.131C278.749 260.567 278.313 261.438 278.313 262.092C278.531 262.745 279.62 262.527 280.274 262.527C285.721 262.092 291.168 262.092 296.397 260.784C302.062 259.477 307.727 257.734 312.521 253.594C320.147 247.058 324.94 239.214 325.812 229.191C326.247 221.783 326.683 214.375 324.94 206.967C322.761 200.213 321.454 193.24 317.314 187.14ZM268.29 243.789C268.072 241.829 268.29 239.432 267.637 237.035C266.112 231.152 262.19 227.23 258.05 223.308C253.038 218.515 246.502 215.682 241.273 211.325C234.736 206.096 230.161 199.777 226.021 192.587C225.803 191.933 225.803 191.062 224.714 191.279C223.842 191.497 224.278 192.369 224.278 193.023C224.278 205.006 227.546 216.118 232.993 226.577C237.351 234.856 243.016 242.264 249.77 248.583C253.692 252.287 257.832 255.773 262.625 258.388C263.933 259.041 265.458 259.695 266.112 257.516C267.419 253.158 268.508 248.801 268.29 243.789ZM223.406 194.112C223.406 192.369 223.406 190.626 223.406 188.883C223.406 187.793 223.842 186.486 222.317 186.05C221.01 185.832 220.792 187.14 220.356 188.011C216.87 194.983 214.473 202.609 213.602 210.235C212.73 219.604 211.423 228.973 215.127 238.342C216.434 241.611 217.959 244.661 220.356 247.276C229.071 256.863 239.965 261.438 252.821 261.874C254.128 261.874 256.525 262.745 256.96 261.656C257.396 260.349 255.435 259.259 254.128 258.388C246.066 251.415 239.53 243.136 234.083 233.985C226.675 221.565 223.624 208.057 223.406 194.112Z" fill="#72B626"/>
<path opacity="0.4" d="M340.837 502.409C348.899 503.499 357.179 504.588 365.24 506.113C379.621 508.728 394.001 511.996 408.163 515.918C417.097 518.533 426.248 521.147 434.963 524.198C446.511 528.338 457.623 532.913 468.735 538.142C475.925 541.628 483.116 545.115 490.088 549.254C496.624 552.958 503.161 557.098 509.479 561.456C513.837 564.506 518.413 567.775 522.552 571.261C529.743 577.361 536.933 583.462 543.251 591.524C539.33 590.217 536.061 588.256 533.011 586.73C526.692 583.68 520.374 580.848 514.055 578.015C492.049 568.21 469.389 560.584 446.293 554.048C428.862 549.037 410.996 545.115 392.912 541.846C380.492 539.667 367.855 537.489 355.218 536.181C341.927 534.656 328.636 533.349 315.345 532.477C294.864 531.17 274.383 530.734 253.684 531.17C239.521 531.388 225.359 532.259 211.196 533.567C201.827 534.438 192.458 535.31 183.307 536.399C172.195 537.924 160.865 539.45 149.753 541.411C135.808 543.807 121.864 546.64 108.137 550.126C94.6284 553.394 81.3375 557.316 68.2644 561.674C56.7166 565.596 45.3866 569.735 34.0567 574.311C25.7771 577.797 17.7154 581.937 9 584.77C11.8325 581.937 14.2292 578.887 17.2796 576.49C23.8161 571.043 30.5705 565.596 37.5428 560.584C49.9622 551.869 63.2531 544.679 76.9798 537.924C88.7455 532.259 100.947 527.466 113.366 523.108C127.093 518.097 141.256 514.393 155.636 510.907C163.262 509.164 170.888 507.203 178.514 506.331C183.307 505.896 188.101 504.588 192.894 503.499C194.419 503.499 195.291 504.588 196.598 505.242C199.648 507.203 202.917 506.985 205.749 505.024C207.71 503.717 209.453 502.192 211.414 501.102C223.18 500.231 234.946 498.923 246.711 498.487C249.98 498.487 253.248 498.27 256.516 498.27C274.383 498.27 292.249 497.834 310.116 499.141C312.73 499.359 315.345 499.577 317.959 499.795C320.574 500.013 322.753 501.32 324.714 503.063C326.457 504.588 328.854 505.46 331.25 505.678C334.737 505.895 336.48 503.281 338.876 501.974C339.966 502.191 340.402 502.191 340.837 502.409C340.837 502.409 340.837 502.191 340.837 502.409Z" fill="#72B626"/>
<path opacity="0.4" d="M425.585 261.435C426.021 269.279 422.97 276.033 418.83 282.57C413.819 290.196 406.629 295.643 399.003 300.219C394.21 303.051 389.198 305.23 383.969 307.409C375.907 310.895 367.628 313.945 359.784 317.649C357.387 318.739 355.426 320.264 353.901 322.661C351.286 326.8 353.247 330.069 357.387 331.594C362.181 333.337 367.192 333.119 372.203 332.465C375.689 332.03 379.176 331.376 382.662 330.722C386.584 329.851 389.852 327.89 393.338 326.365C397.042 324.622 400.092 321.789 403.143 319.174C408.808 314.599 414.037 309.152 418.83 303.487C422.099 299.565 424.713 294.989 427.328 290.849C431.903 283.659 435.608 275.815 439.094 267.972C442.144 261.435 444.105 254.245 446.284 247.273C448.245 240.954 450.424 234.853 452.167 228.535C454.128 221.562 456.742 214.808 459.357 208.271C461.971 202.171 464.804 196.07 468.29 190.405C470.251 187.137 472.43 183.868 475.916 181.908C478.313 180.6 480.274 180.6 482.67 181.69C484.849 182.779 485.721 184.522 485.503 186.919C485.285 190.623 485.503 194.545 483.324 198.031C482.453 199.556 482.453 201.517 482.017 203.26C478.095 218.294 475.262 233.328 472.43 248.58C470.905 256.86 469.597 264.921 468.29 273.201C466.329 285.838 463.932 298.258 459.793 310.459C456.524 319.828 452.385 328.543 447.591 337.041C444.541 342.488 440.619 347.499 436.915 352.293C432.557 357.74 427.11 362.315 421.663 366.673C416.869 370.595 411.858 374.081 406.847 377.349C403.579 379.528 400.092 381.053 396.606 383.014C391.159 386.283 385.276 388.897 379.611 391.512C371.985 395.216 364.142 398.702 356.734 402.624C351.722 405.239 347.365 408.725 342.353 411.339C335.817 415.043 329.934 419.401 324.922 424.63C320.129 429.424 316.425 434.871 314.682 441.843C312.721 449.469 312.939 456.659 314.9 464.285C317.079 473.218 321.436 480.844 326.012 488.47C327.319 490.867 329.28 493.046 330.805 495.225C331.459 496.096 332.548 496.968 331.677 498.057C330.805 499.147 329.498 498.057 328.626 497.403C325.576 495.007 322.526 492.61 319.693 489.995C313.375 483.895 307.492 477.14 302.698 469.732C298.559 463.414 295.072 456.659 292.24 449.469C286.139 434.653 282.435 419.183 280.692 403.06C279.167 388.897 279.82 374.735 282.871 360.79C284.396 353.818 286.575 347.064 289.407 340.527C292.24 333.991 295.944 327.672 300.302 321.789C304.659 316.124 309.453 310.895 315.118 306.537C321.218 301.744 327.537 297.604 334.509 294.118C344.314 289.324 354.119 284.531 363.924 279.955C372.203 276.033 380.701 272.547 388.109 267.318C394.645 262.742 400.092 257.077 403.796 249.887C406.411 245.094 410.987 242.261 416.216 240.954C419.484 240.083 421.663 241.826 422.97 245.53C425.149 250.977 425.149 256.206 425.585 261.435Z" fill="#72B626"/>
<path opacity="0.4" d="M253.247 387.8C253.03 396.733 252.594 405.666 251.069 414.599C248.89 426.583 245.621 438.349 241.264 449.897C239.085 455.562 236.035 461.009 232.766 466.238C230.37 469.942 228.191 473.646 225.576 477.132C222.09 481.926 218.168 486.501 213.593 490.641C210.106 493.691 206.838 497.177 202.916 499.792C202.263 500.228 201.391 500.881 200.737 500.228C199.866 499.574 200.519 498.703 201.173 497.831C204.441 493.038 207.928 488.462 210.76 483.233C216.643 472.774 221.001 461.88 220.129 449.461C219.693 442.706 217.514 436.606 213.157 430.941C210.324 427.237 207.274 424.186 204.006 421.136C197.033 415.035 189.407 410.024 181.346 405.666C175.681 402.616 170.016 399.347 164.133 396.733C158.468 394.336 153.239 391.286 147.574 388.671C142.127 386.274 137.115 383.442 132.104 380.392C129.054 378.648 126.003 376.905 122.953 374.944C118.377 372.112 114.02 368.844 110.098 365.14C105.958 361.436 101.818 357.732 98.114 353.592C92.8848 347.491 88.0914 341.172 84.3873 334.2C81.1191 328.099 77.8508 321.999 75.4541 315.462C73.4931 310.015 71.7501 304.568 70.6606 298.903C69.5712 293.456 68.046 288.009 66.9566 282.562C65.6493 275.154 64.1241 267.963 63.0347 260.555C61.7274 250.968 59.9843 241.382 58.2413 231.795C56.0624 220.247 53.4478 208.917 50.1795 197.805C49.0901 193.665 48.0007 189.743 48.6544 185.603C49.0901 182.335 51.4868 180.592 54.7551 181.028C57.3697 181.463 59.7664 182.771 61.2916 184.95C66.9566 191.922 70.6606 200.201 74.3647 208.263C78.2866 216.979 81.337 226.13 83.9516 235.499C87.0019 246.611 90.4881 257.505 94.8458 267.963C98.114 275.807 102.254 283.215 106.394 290.623C109.444 295.853 112.712 300.864 116.634 305.439C121.21 310.669 126.003 316.116 131.668 320.473C136.026 323.96 140.819 326.792 145.831 329.189C148.445 330.496 151.278 331.368 154.11 331.803C160.429 333.111 166.747 333.546 173.284 333.111C179.167 332.675 182.217 328.317 180.256 323.96C179.385 321.781 177.642 320.473 175.681 319.166C169.144 315.462 161.954 313.065 154.982 310.015C149.317 307.4 143.434 305.004 137.769 302.171C127.31 296.942 119.031 289.752 113.148 279.947C109.444 273.628 108.137 266.874 108.572 259.684C108.79 255.762 108.79 251.622 110.098 247.918C111.841 242.253 115.763 240.728 121.21 243.343C126.875 246.175 130.143 250.968 132.975 256.198C135.372 260.337 138.858 263.388 142.562 266.22C147.356 269.924 152.803 272.757 158.032 275.807C166.965 280.819 176.77 283.869 185.703 288.662C192.894 292.366 200.302 295.853 207.274 300.21C212.721 303.696 217.95 307.618 222.962 311.54C228.191 315.68 232.331 320.909 236.035 326.574C241.482 334.636 245.186 343.569 247.8 352.938C249.979 360.346 251.94 367.536 252.812 375.162C252.812 378.866 253.247 383.224 253.247 387.8Z" fill="#72B626"/>
</g>
</svg>
