<svg width="1083" height="878" viewBox="0 0 1083 878" fill="none" xmlns="http://www.w3.org/2000/svg">
<g clip-path="url(#clip0_4208_20203)">
<g opacity="0.06">
<path d="M471.499 -238.9C475.724 -227.634 479.01 -217.777 482.765 -207.45C491.215 -185.387 501.542 -164.733 512.338 -144.079C526.421 -116.853 542.381 -90.566 558.81 -64.7483C571.484 -44.5635 584.158 -24.3788 598.71 -5.13286C621.711 25.8484 638.61 60.1155 649.407 97.1991C659.734 134.283 661.611 171.836 654.101 209.389C647.998 240.839 635.324 269.943 616.548 296.23C595.424 325.334 569.137 347.396 535.809 361.478C523.604 366.642 510.93 369.928 498.256 372.275C494.031 373.214 491.684 372.275 489.806 368.05C485.112 358.662 480.418 349.743 480.418 338.947C480.418 332.375 482.296 326.742 485.112 321.109C486.051 319.701 486.99 317.823 486.051 316.415C484.643 314.537 482.765 315.945 481.357 316.415C480.418 316.415 479.479 316.884 478.54 317.354C474.785 320.64 472.438 319.701 471.03 315.007C470.091 312.19 468.213 310.312 466.336 314.068C463.989 319.701 460.233 320.17 455.539 317.354C453.662 316.415 451.784 314.537 449.906 316.415C448.029 317.823 449.906 320.17 450.376 322.048C453.192 330.967 454.131 340.355 452.723 349.743C451.784 356.784 449.906 362.887 445.682 368.52C443.804 370.867 441.457 371.806 438.171 370.867C427.374 368.52 416.578 365.234 406.251 361.009C377.617 348.335 353.677 329.558 333.961 304.68C320.348 287.781 310.021 269.474 302.041 249.289C289.837 218.308 283.734 185.918 285.612 152.59C287.02 126.303 293.122 100.954 302.041 76.0756C309.552 53.5438 320.348 32.4202 333.492 13.1742C348.513 -9.35757 365.412 -30.4811 379.964 -53.013C393.577 -73.1977 406.72 -93.8519 418.925 -114.975C427.844 -130.466 436.293 -145.957 443.804 -161.917C455.07 -186.796 465.397 -211.205 471.499 -238.9ZM575.239 142.732C575.709 146.957 570.545 147.896 570.076 151.651C569.137 157.284 566.79 161.978 563.974 167.142C555.994 181.224 543.789 191.082 531.115 200.939C522.196 207.511 511.869 211.736 502.48 217.369C488.398 225.818 477.132 237.084 472.907 253.514C470.091 264.779 471.03 276.515 472.907 288.25C474.785 297.169 478.071 298.577 486.051 293.883C503.419 284.025 517.971 270.412 531.115 255.391C532.054 253.983 532.992 251.166 535.339 252.575C537.686 253.983 537.217 256.33 536.748 258.677C536.278 260.555 534.87 261.963 533.931 263.371C521.257 276.045 509.991 290.597 494.031 299.985C492.153 300.924 491.215 302.802 491.215 304.21C491.684 305.618 494.031 305.149 495.439 305.149C507.175 304.21 518.91 304.21 530.176 301.394C542.381 298.577 554.585 294.822 564.912 285.903C581.342 271.821 591.669 254.922 593.547 233.329C594.485 217.369 595.424 201.409 591.669 185.449C586.975 170.897 584.158 155.876 575.239 142.732ZM469.622 264.779C469.152 260.555 469.622 255.391 468.213 250.228C464.927 237.553 456.478 229.104 447.559 220.655C436.763 210.328 422.68 204.225 411.414 194.837C397.332 183.571 387.474 169.958 378.556 154.467C378.086 153.059 378.086 151.182 375.739 151.651C373.861 152.12 374.8 153.998 374.8 155.406C374.8 181.224 381.841 205.164 393.577 227.696C402.965 245.533 415.17 261.494 429.721 275.107C438.171 283.087 447.09 290.597 457.417 296.23C460.233 297.638 463.519 299.047 464.927 294.352C467.744 284.964 470.091 275.576 469.622 264.779ZM372.923 157.753C372.923 153.998 372.923 150.243 372.923 146.487C372.923 144.14 373.861 141.324 370.576 140.385C367.759 139.916 367.29 142.732 366.351 144.61C358.84 159.631 353.677 176.06 351.799 192.49C349.921 212.675 347.105 232.859 355.085 253.044C357.901 260.085 361.187 266.657 366.351 272.29C385.127 292.944 408.598 302.802 436.293 303.741C439.11 303.741 444.273 305.618 445.212 303.271C446.151 300.455 441.926 298.108 439.11 296.23C421.741 281.209 407.659 263.371 395.924 243.656C379.964 216.899 373.392 187.796 372.923 157.753Z" fill="#72B626"/>
<path d="M625.916 821.954C643.284 824.301 661.122 826.648 678.49 829.934C709.471 835.567 740.452 842.608 770.964 851.057C790.21 856.69 809.925 862.323 828.702 868.895C853.581 877.814 877.521 887.671 901.461 898.937C916.951 906.448 932.442 913.958 947.463 922.877C961.546 930.857 975.628 939.776 989.241 949.164C998.629 955.736 1008.49 962.777 1017.41 970.288C1032.9 983.432 1048.39 996.575 1062 1013.94C1053.55 1011.13 1046.51 1006.9 1039.94 1003.62C1026.32 997.045 1012.71 990.942 999.099 984.84C951.688 963.716 902.869 947.287 853.111 933.204C815.558 922.408 777.066 913.958 738.105 906.917C711.349 902.223 684.123 897.529 656.897 894.713C628.263 891.427 599.628 888.61 570.994 886.733C526.87 883.916 482.745 882.977 438.151 883.916C407.639 884.386 377.127 886.263 346.615 889.08C326.43 890.957 306.246 892.835 286.53 895.182C262.59 898.468 238.181 901.754 214.241 905.979C184.198 911.142 154.156 917.244 124.583 924.755C95.4792 931.796 66.845 940.246 38.6803 949.634C13.8014 958.083 -10.6081 967.002 -35.0175 976.86C-52.8552 984.37 -70.2235 993.289 -89 999.392C-82.8976 993.289 -77.7341 986.717 -71.1623 981.554C-57.0799 969.819 -42.5281 958.083 -27.5069 947.287C-0.75042 928.51 27.8838 913.02 57.4568 898.468C82.8051 886.263 109.092 875.936 135.849 866.548C165.422 855.751 195.934 847.771 226.915 840.261C243.344 836.505 259.774 832.281 276.203 830.403C286.53 829.464 296.857 826.648 307.184 824.301C310.47 824.301 312.348 826.648 315.164 828.056C321.736 832.281 328.777 831.811 334.88 827.587C339.104 824.77 342.86 821.484 347.084 819.137C372.433 817.26 397.781 814.443 423.129 813.504C430.17 813.504 437.212 813.035 444.253 813.035C482.745 813.035 521.237 812.096 559.728 814.912C565.361 815.382 570.994 815.851 576.627 816.321C582.26 816.79 586.954 819.607 591.179 823.362C594.934 826.648 600.098 828.525 605.261 828.995C612.772 829.464 616.527 823.831 621.691 821.015C624.038 821.484 624.977 821.484 625.916 821.954C625.916 821.954 625.916 821.484 625.916 821.954Z" fill="#72B626"/>
<path d="M808.496 302.797C809.435 319.695 802.863 334.247 793.944 348.33C783.148 364.759 767.657 376.494 751.227 386.352C740.9 392.454 730.104 397.149 718.838 401.843C701.47 409.353 683.632 415.925 666.733 423.905C661.57 426.252 657.345 429.538 654.059 434.702C648.426 443.62 652.651 450.662 661.57 453.947C671.897 457.703 682.693 457.233 693.49 455.825C701 454.886 708.511 453.478 716.021 452.07C724.471 450.192 731.512 445.967 739.023 442.682C747.003 438.926 753.575 432.824 760.146 427.191C772.351 417.333 783.617 405.598 793.944 393.393C800.985 384.944 806.618 375.086 812.251 366.167C822.109 350.677 830.089 333.778 837.599 316.879C844.171 302.797 848.396 287.306 853.09 272.285C857.315 258.672 862.009 245.528 865.764 231.915C869.989 216.894 875.622 202.342 881.255 188.26C886.888 175.116 892.99 161.973 900.501 149.768C904.725 142.727 909.42 135.686 916.93 131.461C922.094 128.644 926.318 128.644 931.482 130.992C936.176 133.339 938.054 137.094 937.584 142.257C937.115 150.237 937.584 158.687 932.89 166.198C931.012 169.483 931.012 173.708 930.074 177.463C921.624 209.853 915.522 242.242 909.42 275.101C906.134 292.939 903.317 310.307 900.501 328.145C896.276 355.371 891.112 382.127 882.194 408.414C875.152 428.599 866.234 447.376 855.906 465.683C849.335 477.418 840.885 488.215 832.905 498.542C823.517 510.277 811.782 520.135 800.046 529.523C789.719 537.972 778.923 545.483 768.126 552.524C761.085 557.218 753.575 560.504 746.064 564.729C734.329 571.77 721.654 577.403 709.45 583.036C693.02 591.016 676.121 598.527 660.161 606.976C649.365 612.609 639.977 620.12 629.18 625.753C615.098 633.733 602.424 643.121 591.627 654.387C581.3 664.714 573.32 676.449 569.565 691.47C565.34 707.9 565.809 723.39 570.034 739.82C574.728 759.066 584.117 775.495 593.974 791.925C596.791 797.088 601.015 801.782 604.301 806.476C605.709 808.354 608.057 810.232 606.179 812.579C604.301 814.926 601.485 812.579 599.607 811.171C593.035 806.007 586.464 800.843 580.361 795.211C566.748 782.067 554.074 767.515 543.747 751.555C534.828 737.942 527.318 723.39 521.215 707.9C508.072 675.98 500.092 642.651 496.336 607.915C493.05 577.403 494.459 546.891 501.03 516.849C504.316 501.828 509.01 487.276 515.113 473.193C521.215 459.111 529.195 445.498 538.583 432.824C547.972 420.619 558.299 409.353 570.504 399.965C583.647 389.638 597.26 380.719 612.281 373.208C633.405 362.881 654.528 352.554 675.652 342.697C693.49 334.247 711.797 326.737 727.757 315.471C741.839 305.613 753.574 293.408 761.555 277.918C767.187 267.591 777.045 261.488 788.311 258.672C795.352 256.794 800.046 260.549 802.863 268.529C807.557 280.265 807.557 291.531 808.496 302.797Z" fill="#72B626"/>
<path d="M437.21 575.037C436.74 594.283 435.801 613.529 432.515 632.775C427.821 658.592 420.78 683.941 411.392 708.82C406.698 721.024 400.126 732.76 393.085 744.026C387.921 752.006 383.227 759.986 377.594 767.496C370.084 777.823 361.634 787.681 351.776 796.6C344.266 803.171 337.225 810.682 328.775 816.315C327.367 817.254 325.489 818.662 324.081 817.254C322.203 815.846 323.612 813.968 325.02 812.09C332.061 801.763 339.572 791.906 345.674 780.64C358.348 758.108 367.737 734.637 365.859 707.881C364.92 693.329 360.226 680.185 350.838 667.981C344.735 660.001 338.163 653.429 331.122 646.857C316.101 633.713 299.672 622.917 282.303 613.529C270.099 606.957 257.894 599.916 245.22 594.283C233.015 589.119 221.749 582.547 209.544 576.915C197.809 571.751 187.013 565.649 176.216 559.077C169.644 555.322 163.073 551.566 156.501 547.342C146.643 541.239 137.255 534.198 128.805 526.218C119.887 518.238 110.968 510.258 102.988 501.339C91.7218 488.195 81.3947 474.583 73.4147 459.561C66.3735 446.418 59.3323 433.274 54.1688 419.192C49.944 407.457 46.1887 395.721 43.8417 383.516C41.4946 371.781 38.2087 360.046 35.8617 348.31C33.0452 332.35 29.7593 316.86 27.4122 300.9C24.5958 280.246 20.8405 259.592 17.0852 238.937C12.391 214.058 6.75807 189.649 -0.283119 165.709C-2.63018 156.79 -4.97723 148.341 -3.56899 139.422C-2.63017 132.381 2.53335 128.625 9.57454 129.564C15.2075 130.503 20.371 133.319 23.6569 138.014C35.8617 153.035 43.8417 170.872 51.8217 188.241C60.2711 207.017 66.8429 226.733 72.4759 246.917C79.0476 270.857 86.5582 294.328 95.9465 316.86C102.988 333.759 111.907 349.719 120.825 365.679C127.397 376.945 134.438 387.741 142.888 397.599C152.745 408.865 163.073 420.6 175.277 429.988C184.666 437.499 194.993 443.601 205.789 448.765C211.422 451.581 217.524 453.459 223.627 454.398C237.24 457.214 250.853 458.153 264.935 457.214C277.609 456.275 284.181 446.887 279.956 437.499C278.079 432.805 274.323 429.988 270.099 427.172C256.016 419.192 240.526 414.028 225.504 407.457C213.3 401.824 200.626 396.66 188.421 390.558C165.889 379.292 148.051 363.801 135.377 342.678C127.397 329.065 124.581 314.513 125.52 299.022C125.989 290.573 125.989 281.654 128.805 273.674C132.561 261.469 141.01 258.183 152.745 263.816C164.95 269.919 171.991 280.246 178.094 291.512C183.257 300.43 190.768 307.002 198.748 313.105C209.075 321.085 220.81 327.187 232.076 333.759C251.322 344.555 272.446 351.127 291.692 361.454C307.182 369.434 323.142 376.945 338.163 386.333C349.899 393.844 361.165 402.293 371.961 410.742C383.227 419.661 392.146 430.927 400.126 443.132C411.861 460.5 419.841 479.746 425.474 499.931C430.168 515.891 434.393 531.381 436.271 547.811C436.271 555.791 437.21 565.179 437.21 575.037Z" fill="#72B626"/>
</g>
</g>
<defs>
<clipPath id="clip0_4208_20203">
<rect width="1083" height="878" fill="white"/>
</clipPath>
</defs>
</svg>
