<svg width="694" height="755" viewBox="0 0 694 755" fill="none" xmlns="http://www.w3.org/2000/svg">
<g opacity="0.1">
<path d="M337.56 0C340.104 6.78488 342.083 12.7216 344.344 18.9411C349.433 32.2282 355.653 44.6671 362.155 57.106C370.636 73.5028 380.248 89.3342 390.142 104.883C397.775 117.039 405.408 129.195 414.172 140.786C428.025 159.445 438.202 180.082 444.704 202.415C450.924 224.749 452.054 247.365 447.531 269.982C443.856 288.923 436.223 306.45 424.915 322.282C412.193 339.809 396.362 353.096 376.29 361.577C368.94 364.687 361.307 366.666 353.674 368.079C351.129 368.645 349.716 368.08 348.585 365.535C345.758 359.881 342.931 354.51 342.931 348.008C342.931 344.05 344.062 340.657 345.758 337.265C346.323 336.417 346.889 335.286 346.323 334.438C345.475 333.307 344.344 334.155 343.496 334.438C342.931 334.438 342.366 334.721 341.8 335.003C339.539 336.982 338.125 336.417 337.277 333.59C336.711 331.894 335.581 330.763 334.45 333.024C333.036 336.417 330.775 336.699 327.948 335.003C326.817 334.438 325.686 333.307 324.555 334.438C323.424 335.286 324.555 336.699 324.838 337.83C326.534 343.202 327.1 348.856 326.251 354.51C325.686 358.75 324.555 362.425 322.011 365.818C320.88 367.231 319.467 367.797 317.488 367.231C310.986 365.818 304.483 363.839 298.264 361.295C281.019 353.662 266.601 342.354 254.728 327.37C246.529 317.193 240.31 306.168 235.504 294.011C228.153 275.353 224.478 255.846 225.609 235.774C226.457 219.943 230.132 204.677 235.504 189.694C240.027 176.124 246.529 163.402 254.445 151.812C263.491 138.242 273.669 125.52 282.432 111.95C290.631 99.7942 298.547 87.3553 305.897 74.6336C311.268 65.3044 316.357 55.9752 320.88 46.3633C327.665 31.38 333.884 16.6795 337.56 0ZM400.037 229.838C400.32 232.382 397.21 232.947 396.927 235.209C396.362 238.601 394.948 241.428 393.252 244.538C388.446 253.019 381.096 258.956 373.463 264.893C368.092 268.851 361.872 271.395 356.218 274.787C347.737 279.876 340.952 286.661 338.408 296.556C336.711 303.34 337.277 310.408 338.408 317.476C339.538 322.847 341.517 323.695 346.323 320.868C356.783 314.931 365.547 306.733 373.463 297.686C374.028 296.838 374.594 295.142 376.007 295.99C377.421 296.838 377.138 298.252 376.855 299.665C376.573 300.796 375.725 301.644 375.159 302.492C367.526 310.125 360.741 318.889 351.129 324.543C349.999 325.109 349.433 326.239 349.433 327.088C349.716 327.936 351.129 327.653 351.977 327.653C359.045 327.088 366.113 327.088 372.898 325.391C380.248 323.695 387.598 321.434 393.818 316.062C403.712 307.581 409.932 297.404 411.062 284.399C411.628 274.787 412.193 265.176 409.932 255.564C407.105 246.8 405.408 237.753 400.037 229.838ZM336.429 303.341C336.146 300.796 336.429 297.686 335.581 294.577C333.602 286.944 328.513 281.855 323.142 276.766C316.64 270.547 308.158 266.872 301.374 261.218C292.893 254.433 286.956 246.234 281.584 236.905C281.302 236.057 281.302 234.926 279.888 235.209C278.757 235.492 279.323 236.623 279.323 237.471C279.323 253.019 283.563 267.437 290.631 281.007C296.285 291.75 303.635 301.362 312.399 309.56C317.488 314.366 322.859 318.889 329.079 322.282C330.775 323.13 332.754 323.978 333.602 321.151C335.298 315.497 336.711 309.843 336.429 303.341ZM278.192 238.884C278.192 236.623 278.192 234.361 278.192 232.099C278.192 230.686 278.757 228.99 276.778 228.424C275.082 228.141 274.799 229.838 274.234 230.968C269.711 240.015 266.601 249.91 265.47 259.804C264.34 271.96 262.643 284.117 267.449 296.273C269.145 300.513 271.124 304.471 274.234 307.864C285.542 320.303 299.677 326.239 316.357 326.805C318.053 326.805 321.163 327.936 321.728 326.522C322.294 324.826 319.749 323.412 318.053 322.282C307.593 313.235 299.112 302.492 292.044 290.619C282.432 274.505 278.475 256.977 278.192 238.884Z" fill="white"/>
<path d="M430.557 638.898C441.017 640.312 451.76 641.725 462.22 643.704C480.878 647.097 499.536 651.337 517.912 656.426C529.503 659.818 541.377 663.211 552.685 667.169C567.668 672.54 582.086 678.477 596.504 685.262C605.833 689.785 615.162 694.308 624.209 699.68C632.69 704.485 641.171 709.857 649.369 715.511C655.023 719.469 660.96 723.709 666.331 728.233C675.661 736.148 684.99 744.064 693.188 754.524C688.099 752.828 683.859 750.283 679.901 748.304C671.703 744.347 663.504 740.672 655.306 736.996C626.753 724.275 597.352 714.38 567.385 705.899C544.769 699.397 521.587 694.308 498.123 690.068C482.009 687.241 465.612 684.414 449.215 682.717C431.97 680.738 414.726 679.042 397.481 677.911C370.907 676.215 344.332 675.65 317.476 676.215C299.1 676.498 280.724 677.629 262.349 679.325C250.192 680.456 238.036 681.587 226.163 683C211.745 684.979 197.044 686.958 182.626 689.502C164.533 692.612 146.44 696.287 128.63 700.81C111.102 705.051 93.8575 710.14 76.8953 715.794C61.912 720.882 47.2114 726.254 32.5109 732.19C21.7681 736.714 11.3081 742.085 0 745.76C3.67514 742.085 6.78487 738.127 10.7427 735.017C19.2238 727.95 27.9876 720.882 37.0341 714.38C53.1482 703.072 70.3931 693.743 88.2034 684.979C103.469 677.629 119.301 671.409 135.415 665.755C153.225 659.253 171.601 654.447 190.259 649.924C200.154 647.662 210.048 645.118 219.943 643.987C226.163 643.422 232.382 641.725 238.602 640.312C240.58 640.312 241.711 641.725 243.407 642.574C247.365 645.118 251.606 644.835 255.281 642.291C257.825 640.595 260.087 638.616 262.631 637.202C277.897 636.071 293.163 634.375 308.429 633.81C312.67 633.81 316.91 633.527 321.151 633.527C344.332 633.527 367.514 632.962 390.696 634.658C394.088 634.94 397.481 635.223 400.873 635.506C404.266 635.789 407.093 637.485 409.637 639.746C411.899 641.725 415.008 642.856 418.118 643.139C422.641 643.422 424.903 640.029 428.013 638.333C429.426 638.616 429.992 638.616 430.557 638.898C430.557 638.616 430.557 638.898 430.557 638.898Z" fill="white"/>
<path d="M540.516 326.236C541.082 336.413 537.124 345.177 531.753 353.658C525.25 363.553 515.921 370.62 506.027 376.557C499.807 380.232 493.305 383.059 486.52 385.886C476.06 390.409 465.317 394.367 455.14 399.173C452.03 400.587 449.486 402.566 447.507 405.675C444.115 411.047 446.659 415.287 452.03 417.266C458.25 419.528 464.752 419.245 471.254 418.397C475.777 417.832 480.301 416.984 484.824 416.135C489.913 415.005 494.153 412.46 498.676 410.481C503.482 408.22 507.44 404.545 511.398 401.152C518.748 395.215 525.533 388.148 531.753 380.798C535.993 375.709 539.386 369.772 542.778 364.401C548.715 355.072 553.521 344.894 558.044 334.717C562.002 326.236 564.546 316.907 567.373 307.86C569.918 299.662 572.745 291.746 575.006 283.548C577.551 274.501 580.943 265.737 584.335 257.256C587.728 249.341 591.403 241.425 595.926 234.075C598.471 229.834 601.298 225.593 605.821 223.049C608.931 221.353 611.475 221.353 614.585 222.766C617.412 224.18 618.542 226.442 618.26 229.551C617.977 234.357 618.26 239.446 615.433 243.969C614.302 245.948 614.302 248.492 613.737 250.754C608.648 270.261 604.973 289.767 601.298 309.556C599.319 320.299 597.622 330.759 595.926 341.502C593.382 357.899 590.272 374.013 584.901 389.844C580.66 402 575.289 413.308 569.069 424.334C565.112 431.401 560.023 437.904 555.217 444.123C549.563 451.191 542.495 457.127 535.428 462.781C529.208 467.87 522.706 472.393 516.204 476.634C511.963 479.461 507.44 481.44 502.917 483.984C495.849 488.225 488.216 491.617 480.866 495.01C470.971 499.816 460.794 504.339 451.182 509.427C444.68 512.82 439.026 517.343 432.524 520.736C424.043 525.542 416.41 531.196 409.908 537.98C403.688 544.2 398.882 551.268 396.621 560.314C394.076 570.209 394.359 579.538 396.903 589.432C399.73 601.023 405.384 610.918 411.321 620.812C413.017 623.922 415.562 626.749 417.541 629.576C418.389 630.707 419.802 631.838 418.671 633.251C417.541 634.665 415.844 633.251 414.714 632.403C410.756 629.294 406.798 626.184 403.123 622.791C394.924 614.876 387.291 606.112 381.072 596.5C375.7 588.302 371.177 579.538 367.502 570.209C359.586 550.985 354.78 530.913 352.519 509.993C350.54 491.617 351.388 473.241 355.346 455.148C357.325 446.102 360.152 437.338 363.827 428.857C367.502 420.376 372.308 412.178 377.962 404.545C383.616 397.194 389.836 390.409 397.186 384.755C405.102 378.536 413.3 373.165 422.347 368.641C435.068 362.422 447.79 356.202 460.511 350.266C471.254 345.177 482.28 340.654 491.891 333.869C500.373 327.932 507.44 320.582 512.246 311.253C515.639 305.033 521.575 301.358 528.36 299.662C532.601 298.531 535.428 300.793 537.124 305.598C539.951 312.666 539.951 319.451 540.516 326.236Z" fill="white"/>
<path d="M316.908 490.193C316.625 501.784 316.06 513.375 314.081 524.966C311.254 540.514 307.014 555.78 301.36 570.764C298.532 578.114 294.575 585.182 290.334 591.966C287.224 596.772 284.397 601.578 281.005 606.102C276.482 612.321 271.393 618.258 265.456 623.629C260.933 627.587 256.692 632.11 251.604 635.503C250.756 636.068 249.625 636.916 248.777 636.068C247.646 635.22 248.494 634.089 249.342 632.958C253.583 626.739 258.106 620.802 261.781 614.017C269.414 600.448 275.068 586.312 273.937 570.198C273.372 561.434 270.545 553.519 264.891 546.169C261.216 541.363 257.258 537.405 253.017 533.447C243.971 525.531 234.076 519.029 223.616 513.375C216.266 509.417 208.916 505.177 201.283 501.784C193.932 498.674 187.147 494.717 179.797 491.324C172.73 488.214 166.227 484.539 159.725 480.581C155.767 478.32 151.81 476.058 147.852 473.514C141.915 469.839 136.261 465.598 131.172 460.792C125.801 455.986 120.429 451.18 115.624 445.809C108.839 437.893 102.619 429.695 97.8132 420.648C93.5727 412.733 89.3321 404.817 86.2224 396.336C83.678 389.268 81.4164 382.201 80.0029 374.85C78.5894 367.783 76.6105 360.715 75.197 353.648C73.5007 344.036 71.5218 334.707 70.1083 325.095C68.4121 312.656 66.1505 300.217 63.8888 287.778C61.0618 272.795 57.6694 258.094 53.4288 243.676C52.0153 238.305 50.6018 233.216 51.4499 227.845C52.0153 223.604 55.125 221.343 59.3656 221.908C62.758 222.473 65.8677 224.17 67.8467 226.997C75.1969 236.043 80.0029 246.786 84.8089 257.246C89.8975 268.554 93.8554 280.428 97.2478 292.584C101.206 307.002 105.729 321.137 111.383 334.707C115.624 344.884 120.995 354.496 126.366 364.108C130.324 370.893 134.565 377.395 139.653 383.331C145.59 390.116 151.81 397.184 159.16 402.838C164.814 407.361 171.033 411.036 177.536 414.146C180.928 415.842 184.603 416.973 188.278 417.539C196.477 419.235 204.675 419.8 213.156 419.235C220.789 418.669 224.747 413.015 222.203 407.361C221.072 404.534 218.81 402.838 216.266 401.142C207.785 396.336 198.456 393.226 189.409 389.268C182.059 385.876 174.426 382.766 167.075 379.091C153.506 372.306 142.763 362.977 135.13 350.255C130.324 342.057 128.628 333.293 129.193 323.964C129.476 318.875 129.476 313.504 131.172 308.698C133.434 301.348 138.522 299.369 145.59 302.761C152.94 306.436 157.181 312.656 160.856 319.441C163.966 324.812 168.489 328.77 173.295 332.445C179.514 337.251 186.582 340.926 193.367 344.884C204.958 351.386 217.679 355.344 229.27 361.563C238.599 366.369 248.211 370.893 257.258 376.547C264.325 381.07 271.11 386.158 277.612 391.247C284.397 396.619 289.769 403.403 294.575 410.754C301.642 421.214 306.448 432.805 309.841 444.961C312.668 454.573 315.212 463.902 316.343 473.796C316.343 478.602 316.908 484.257 316.908 490.193Z" fill="white"/>
</g>
</svg>
