<svg width="22" height="22" viewBox="0 0 22 22" fill="none" xmlns="http://www.w3.org/2000/svg">
<path d="M18.6962 18.6998L18.7001 18.6992V13.0512C18.7001 10.2882 18.1052 8.15979 14.8751 8.15979C13.3222 8.15979 12.2802 9.01192 11.8548 9.81978H11.8098V8.41774H8.74716V18.6992H11.9362V13.6082C11.9362 12.2677 12.1903 10.9716 13.8503 10.9716C15.486 10.9716 15.5103 12.5013 15.5103 13.6942V18.6998H18.6962Z" fill="#0077B5"/>
<path d="M3.55414 8.41838H6.74708V18.6998H3.55414V8.41838Z" fill="#0077B5"/>
<path d="M5.14933 3.2998C4.12844 3.2998 3.30005 4.1282 3.30005 5.14909C3.30005 6.16998 4.12844 7.0157 5.14933 7.0157C6.17022 7.0157 6.99862 6.16998 6.99862 5.14909C6.99797 4.1282 6.16958 3.2998 5.14933 3.2998Z" fill="#0077B5"/>
</svg>
