<svg width="28" height="40" viewBox="0 0 28 40" fill="none" xmlns="http://www.w3.org/2000/svg">
<g clip-path="url(#clip0_2598_3820)">
<path d="M27.5861 37.9309H0V0H21.3794L27.5861 6.20697V37.9309Z" fill="#F8F9FB"/>
<path d="M0 27.5859H27.5861V39.9998H0V27.5859Z" fill="#DA072D"/>
<path d="M13.2971 7.43262C13.2297 7.45459 12.3834 8.62494 13.3633 9.61523C14.0158 8.17999 13.327 7.42346 13.2971 7.43262ZM13.7146 13.1766C13.2226 14.856 12.5738 16.6691 11.8765 18.3103C13.3124 17.7601 14.8746 17.2794 16.3406 16.9395C15.4132 15.8753 14.4861 14.5463 13.7146 13.1766ZM18.8482 17.6435C19.4082 18.0689 19.5447 18.2841 19.9118 18.2841C20.0723 18.2841 20.531 18.2773 20.7428 17.985C20.8456 17.8428 20.8856 17.7518 20.9006 17.7042C20.8166 17.6594 20.704 17.5706 20.0931 17.5706C19.7455 17.5706 19.3097 17.5855 18.8482 17.6435ZM9.4766 20.6592C8.00749 21.4738 7.40904 22.1436 7.36631 22.5214C7.35929 22.5843 7.34068 22.7485 7.66203 22.9911C7.76487 22.9587 8.36271 22.6896 9.4766 20.6592ZM7.64677 24.1379C7.40751 24.1379 7.17802 24.0613 6.98209 23.9167C6.26676 23.3857 6.17033 22.7958 6.2158 22.3939C6.34061 21.2897 7.72398 20.1325 10.329 18.9539C11.3626 16.7167 12.3462 13.96 12.9324 11.6572C12.247 10.1829 11.5799 8.27032 12.0654 7.14819C12.2357 6.75513 12.449 6.45331 12.8448 6.32269C13.002 6.27173 13.3978 6.20703 13.5434 6.20703C13.9041 6.20703 14.2505 6.63733 14.4171 6.91718C14.7275 7.43658 14.729 8.04144 14.6798 8.62494C14.6322 9.19165 14.5358 9.75531 14.4247 10.3126C14.3435 10.7221 14.2517 11.1298 14.1537 11.536C15.0799 13.4247 16.3916 15.3498 17.6495 16.6675C18.551 16.507 19.3262 16.4255 19.9579 16.4255C21.033 16.4255 21.6861 16.673 21.9516 17.1827C22.1725 17.6047 22.0813 18.0988 21.6833 18.649C21.3006 19.1779 20.7739 19.4572 20.1581 19.4572C19.3213 19.4572 18.349 18.9359 17.2635 17.9062C15.3137 18.3091 13.0371 19.0269 11.1966 19.8215C10.6219 21.0255 10.0717 21.9953 9.55869 22.707C8.85587 23.6835 8.24827 24.1379 7.64677 24.1379Z" fill="#DA072D"/>
<path d="M4.13794 37.9304C3.75739 37.9304 3.44824 37.6216 3.44824 37.241V30.3444C3.44824 29.9635 3.75739 29.6547 4.13794 29.6547C4.5188 29.6547 4.82764 29.9635 4.82764 30.3444V37.241C4.82764 37.6216 4.5188 37.9304 4.13794 37.9304Z" fill="white"/>
<path d="M23.4482 31.0337H19.3104C18.9298 31.0337 18.6207 30.7246 18.6207 30.344C18.6207 29.9632 18.9298 29.6543 19.3104 29.6543H23.4482C23.8291 29.6543 24.1379 29.9632 24.1379 30.344C24.1379 30.7246 23.8291 31.0337 23.4482 31.0337Z" fill="white"/>
<path d="M23.4482 34.482H19.3104C18.9298 34.482 18.6207 34.1732 18.6207 33.7923C18.6207 33.4117 18.9298 33.1026 19.3104 33.1026H23.4482C23.8291 33.1026 24.1379 33.4117 24.1379 33.7923C24.1379 34.1732 23.8291 34.482 23.4482 34.482Z" fill="white"/>
<path d="M19.3104 37.9301C18.9298 37.9301 18.6207 37.6213 18.6207 37.2407V30.344C18.6207 29.9632 18.9298 29.6543 19.3104 29.6543C19.6912 29.6543 20.0001 29.9632 20.0001 30.344V37.2407C20.0001 37.6213 19.6912 37.9301 19.3104 37.9301Z" fill="white"/>
<path d="M6.20703 35.1716H4.13794C3.75739 35.1716 3.44824 34.8627 3.44824 34.4819V30.3444C3.44824 29.9635 3.75739 29.6547 4.13794 29.6547L6.20703 29.6543C7.72833 29.6543 8.96552 30.8915 8.96552 32.4131C8.96552 33.9344 7.72833 35.1716 6.20703 35.1716ZM4.82764 33.7922H6.20703C6.96753 33.7922 7.58612 33.1736 7.58612 32.4131C7.58612 31.6523 6.96753 31.0337 6.20703 31.0337H4.82764V33.7922Z" fill="white"/>
<path d="M12.4141 37.9301H11.7244C11.3436 37.9301 11.0347 37.6212 11.0347 37.2407V30.344C11.0347 29.9631 11.3436 29.6543 11.7244 29.6543H12.4141C14.6953 29.6543 16.552 31.5101 16.552 33.7922C16.552 36.0743 14.6953 37.9301 12.4141 37.9301ZM12.4141 31.0337V36.551C13.9354 36.551 15.1726 35.3135 15.1726 33.7922C15.1726 32.2709 13.9354 31.0337 12.4141 31.0337Z" fill="white"/>
</g>
<defs>
<clipPath id="clip0_2598_3820">
<rect width="28" height="40" fill="white"/>
</clipPath>
</defs>
</svg>
