<svg width="40" height="26" viewBox="0 0 40 26" fill="none" xmlns="http://www.w3.org/2000/svg">
<path d="M39.9303 9.18982C39.842 12.443 39.1466 15.5526 37.3587 18.3953C35.1955 21.8435 32.0059 24.1217 28.0216 25.5174C27.6132 25.6611 27.1938 25.7843 26.7744 25.9074C25.8915 26.164 25.0196 25.8766 24.534 25.1788C24.0594 24.5014 24.1035 23.6599 24.6885 23.0031C25.2734 22.3566 25.8584 21.71 26.3771 21.0225C27.2711 19.8525 28.0437 18.621 28.6507 17.2972C28.7611 17.0611 28.7942 16.979 28.4631 16.9072C24.3574 16.0452 21.4216 12.6072 21.3995 8.65617C21.3775 4.68459 24.3022 1.18509 28.3968 0.261464C34.1028 -1.03161 38.8928 2.65262 39.7757 7.32205C39.8861 7.9378 39.9523 8.56381 39.9303 9.18982Z" fill="#DDE2E9"/>
<path d="M18.6015 9.06206C18.5353 11.9661 18.0062 14.6238 16.7496 17.1276C14.7655 21.068 11.4806 23.7154 7.19261 25.347C6.61941 25.5625 6.03518 25.737 5.45096 25.9114C4.59116 26.1577 3.73136 25.8806 3.24635 25.2034C2.75031 24.5261 2.78338 23.6847 3.3676 23.0382C4.40377 21.8889 5.38482 20.7088 6.20053 19.4159C6.63043 18.7181 7.02726 17.9998 7.35795 17.261C7.44614 17.066 7.45716 16.9839 7.19261 16.9224C3.33453 15.9886 0.997645 13.6797 0.22603 10.0472C-0.721953 5.59368 2.66213 1.0581 7.46818 0.175617C13.2773 -0.891577 17.8188 3.06936 18.4912 7.60493C18.5794 8.13853 18.5905 8.67212 18.6015 9.06206Z" fill="#DDE2E9"/>
</svg>
