<svg width="640" height="312" viewBox="0 0 640 312" fill="none" xmlns="http://www.w3.org/2000/svg">
<g clip-path="url(#clip0_4075_7643)">
<path d="M68.6669 304.763H608.109L588.857 147.84C567.852 5.16906 412.35 -42.1909 301.352 40.886C256.281 67.0275 203.534 75.2983 152.07 69.7598C51.8579 60.1844 -18.1672 182.597 40.8494 263.803L68.6669 304.763Z" fill="#FAFAFA"/>
<path d="M19.9937 304.861L19.5 193.674H98.4877V134.4H239.003V207.87H398.329V147.438H509.349V184.752H593.622L607.321 304.861H19.9937Z" fill="#E7EEE7"/>
<path d="M449.302 91.2737H412.13C409.884 91.2737 407.909 92.7998 407.366 94.9906L361.555 277.981H364.936L410.377 96.4921C410.624 95.4583 411.562 94.7445 412.623 94.7445H449.327C450.289 94.7445 451.054 93.9814 451.054 93.0214C451.054 92.0614 450.265 91.2737 449.302 91.2737Z" fill="#2C333A"/>
<path d="M581.774 91.4214H544.528C542.282 91.4214 540.307 92.9475 539.764 95.1383L493.953 278.129H497.335L542.776 96.6399C543.023 95.606 543.96 94.8922 545.022 94.8922H581.774C582.737 94.8922 583.502 94.1291 583.502 93.1691C583.527 92.2091 582.737 91.4214 581.774 91.4214Z" fill="#2C333A"/>
<path d="M407.884 286.769C407.81 279.705 405.095 271.606 397.986 269.12C394.728 268.381 391.272 268.898 387.94 268.775C379.128 267.495 372.809 275.274 372.637 286.769C372.809 298.265 379.104 306.043 387.94 304.763C391.272 304.64 394.728 305.157 397.986 304.418C405.045 302.006 407.834 293.686 407.884 286.769Z" fill="#104D12"/>
<path d="M344.992 278.941C343.388 273.994 339.488 268.775 333.811 268.751C330.281 268.775 326.603 268.751 323.148 268.751C316.335 268.898 310.856 277.071 310.954 287.065C311.078 296.911 316.582 304.837 323.419 304.788C326.875 304.763 330.33 304.763 333.811 304.788C342.45 304.394 346.251 294.301 346.201 286.769C346.201 283.963 345.782 281.305 344.992 278.941Z" fill="#104D12"/>
<path d="M519.598 171.028H430.469V280.615H519.598V171.028Z" fill="#03650C"/>
<path d="M488.4 171.028H477.836V183.532H488.4V171.028Z" fill="#DEFFDD"/>
<path d="M445.227 171.028H310.953V280.615H445.227V171.028Z" fill="#00920D"/>
<path d="M386.036 171.028H370.141V183.532H386.036V171.028Z" fill="#DEFFDD"/>
<path d="M532.383 279.655H298.168V285.908H532.383V279.655Z" fill="#0D6210"/>
<path d="M415.263 279.655H298.168V285.908H415.263V279.655Z" fill="#104D12"/>
<path d="M512.119 268.751C509.404 268.775 506.689 268.775 503.973 268.751C485.56 266.141 484.499 304.197 501.653 304.763C504.368 304.738 507.083 304.738 509.799 304.763C528.212 307.372 529.298 269.341 512.119 268.751Z" fill="#104D12"/>
<path d="M524.535 286.769C524.215 310.474 500.075 310.474 499.754 286.769C500.075 263.064 524.215 263.064 524.535 286.769Z" fill="#0D6210"/>
<path d="M516.589 286.769C516.466 295.901 507.827 295.901 507.703 286.769C507.802 277.637 516.466 277.637 516.589 286.769Z" fill="#104D12"/>
<path d="M450.463 268.751C447.747 268.775 445.032 268.775 442.317 268.751C423.904 266.141 422.843 304.197 439.997 304.763C442.712 304.738 445.427 304.738 448.142 304.763C466.556 307.372 467.642 269.341 450.463 268.751Z" fill="#104D12"/>
<path d="M462.852 286.769C462.531 310.474 438.391 310.474 438.07 286.769C438.391 263.064 462.556 263.064 462.852 286.769Z" fill="#0D6210"/>
<path d="M454.905 286.769C454.782 295.901 446.143 295.901 446.02 286.769C446.143 277.637 454.807 277.637 454.905 286.769Z" fill="#104D12"/>
<path d="M305.329 83.1753L272.994 109.366L262.529 97.9445L248.953 110.301C250.558 112.074 260.06 122.388 261.369 123.914C266.626 130.043 276.894 130.068 282.176 123.963L311.623 91.3476L305.329 83.1753Z" fill="#F4D2C6"/>
<mask id="mask0_4075_7643" style="mask-type:luminance" maskUnits="userSpaceOnUse" x="248" y="83" width="64" height="46">
<path d="M305.329 83.1753L272.994 109.366L262.529 97.9445L248.953 110.301C250.558 112.074 260.06 122.388 261.369 123.914C266.626 130.043 276.894 130.068 282.176 123.963L311.623 91.3476L305.329 83.1753Z" fill="white"/>
</mask>
<g mask="url(#mask0_4075_7643)">
<path d="M272.996 109.366L264.11 128.566L254.336 119.951L269.812 105.009L272.996 109.366Z" fill="#EDA19D"/>
</g>
<path d="M323.173 138.609H293.233C291.629 138.609 290.32 137.304 290.32 135.704V91.5936C290.32 89.9936 291.629 88.689 293.233 88.689H323.198C324.802 88.689 326.11 89.9936 326.11 91.5936V135.68C326.11 137.304 324.802 138.609 323.173 138.609Z" fill="#F3AC4A"/>
<path d="M322.581 92.5291H293.801V134.794H322.581V92.5291Z" fill="#F3F5FB"/>
<path d="M313.178 93.7106H303.23C302.589 93.7106 302.07 93.1937 302.07 92.5537V88.7629C302.07 88.1229 302.589 87.606 303.23 87.606H313.178C313.819 87.606 314.338 88.1229 314.338 88.7629V92.5537C314.338 93.1937 313.819 93.7106 313.178 93.7106Z" fill="#D59032"/>
<path d="M320.164 99.5691H296.246V102.449H320.164V99.5691Z" fill="#D2D8E0"/>
<path d="M320.164 105.895H296.246V108.775H320.164V105.895Z" fill="#D2D8E0"/>
<path d="M320.164 112.197H296.246V115.077H320.164V112.197Z" fill="#D2D8E0"/>
<path d="M320.164 118.523H296.246V121.403H320.164V118.523Z" fill="#D2D8E0"/>
<path d="M313.006 124.849H296.246V127.729H313.006V124.849Z" fill="#D2D8E0"/>
<path d="M303.527 86.3999C303.083 90.1907 306.168 92.1353 309.13 93.6122C313.425 96.2461 319.398 91.9384 318.115 87.0153C317.646 83.5445 315.424 81.8461 312.166 81.0584C308.513 79.9014 303.823 82.4122 303.527 86.3999Z" fill="#F4D2C6"/>
<path d="M193.361 111.679L228.488 93.3047L217.275 71.9849L182.148 90.3591L193.361 111.679Z" fill="#03650C"/>
<path d="M180.679 115.766L192.082 108.16L184.11 94.1538C177.372 98.1169 166.264 102.228 166.412 111.68C167.029 115.545 161.92 158.474 166.091 160.345C171.003 165.932 176.434 161.354 180.951 158.055L174.632 157.981L180.679 115.766Z" fill="#F4D2C6"/>
<mask id="mask1_4075_7643" style="mask-type:luminance" maskUnits="userSpaceOnUse" x="164" y="94" width="29" height="69">
<path d="M180.679 115.766L192.082 108.16L184.11 94.1538C177.372 98.1169 166.264 102.228 166.412 111.68C167.029 115.545 161.92 158.474 166.091 160.345C171.003 165.932 176.434 161.354 180.951 158.055L174.632 157.981L180.679 115.766Z" fill="white"/>
</mask>
<g mask="url(#mask1_4075_7643)">
<path d="M179.098 94.4246L183.22 110.892L192.698 104.738L186.206 90.6584L179.098 94.4246Z" fill="#EDA19D"/>
</g>
<path d="M273.606 105.116L245.559 77.1455L228.489 94.1681L256.537 122.139L273.606 105.116Z" fill="#03650C"/>
<path d="M257.121 121.575L252.406 95.8523L260.379 118.326L257.121 121.575Z" fill="#0B5812"/>
<path d="M198.156 134.843L201.143 291.569H211.707L233.872 134.498L198.156 134.843Z" fill="#444642"/>
<path d="M227.925 176.591C212.572 196.923 207.957 264.418 206.723 293.686H216.003L227.481 221.883L227.925 176.591Z" fill="#383A37"/>
<path d="M257.837 134.843L254.85 291.569H243.768L222.121 134.498L257.837 134.843Z" fill="#444642"/>
<path d="M227.922 176.591C240.979 193.132 248.186 269.046 248.507 292.775H239.992L227.922 176.591Z" fill="#383A37"/>
<path d="M217.68 48.2213C218.494 53.0952 214.298 53.809 213.434 48.9352C212.645 44.0613 216.841 43.3475 217.68 48.2213Z" fill="#EDA19D"/>
<path d="M237.921 48.2213C237.106 53.0952 241.302 53.809 242.166 48.9352C242.956 44.0613 238.76 43.3475 237.921 48.2213Z" fill="#EDA19D"/>
<path d="M239.82 48.8368C239.524 68.0368 216.075 68.0368 215.779 48.8368C213.632 29.1937 241.326 28.9968 239.82 48.8368Z" fill="#F4D2C6"/>
<mask id="mask2_4075_7643" style="mask-type:luminance" maskUnits="userSpaceOnUse" x="215" y="34" width="25" height="30">
<path d="M239.82 48.8368C239.524 68.0368 216.075 68.0368 215.779 48.8368C213.632 29.1937 241.326 28.9968 239.82 48.8368Z" fill="white"/>
</mask>
<g mask="url(#mask2_4075_7643)">
<path d="M216.816 41.9198C216.816 41.9198 225.9 43.7906 238.093 40.4182L236.785 36.0859L219.063 36.7259L216.841 41.2059" fill="#EDA19D"/>
</g>
<path d="M234.019 52.3567C230.885 52.3567 224.689 52.3567 221.554 52.3567C223.06 56.6398 219.777 78.0798 219.777 78.0798C223.801 78.0798 231.773 78.0798 235.796 78.0798C235.796 78.0552 232.514 56.6398 234.019 52.3567Z" fill="#F4D2C6"/>
<path d="M221.728 61.4153C221.728 61.4153 227.381 65.7476 233.848 61.4153L234.193 65.3045C234.193 65.3045 227.233 68.5537 221.383 65.3537L221.728 61.4153Z" fill="#EDA19D"/>
<path d="M217.408 38.4738C217.408 38.4738 233.131 40.0246 237.179 37.6122C241.226 35.1999 240.387 27.0522 240.387 27.0522C238.067 27.4215 211.953 26.7815 217.408 38.4738Z" fill="#59445A"/>
<path d="M217.704 33.2307C217.704 33.2307 213.311 34.5353 212.792 36.3323C212.274 38.1292 215.952 45.0707 215.952 45.0707C216.939 45.0707 217.803 44.3815 218.025 43.4215L219.383 37.563L217.704 33.2307Z" fill="#59445A"/>
<path d="M237.87 33.2307C237.87 33.2307 242.263 34.5353 242.782 36.3323C243.3 38.1292 239.622 45.0707 239.622 45.0707C238.635 45.0953 237.722 44.2584 237.549 43.4215C237.524 43.2984 236.191 37.563 236.191 37.563L237.87 33.2307Z" fill="#59445A"/>
<path d="M236.191 38.08C236.191 38.08 239.746 36.037 239.82 33.9939C239.82 33.9939 241.153 38.8924 236.191 38.08Z" fill="#34254B"/>
<path d="M202.92 291.569L201.76 295.655L189.171 301.046C187.666 301.686 186.703 303.163 186.703 304.788H212.719L211.731 291.594H202.92V291.569Z" fill="#2C333A"/>
<path d="M252.556 291.569L253.716 295.655L266.304 301.046C267.81 301.686 268.772 303.163 268.772 304.788H242.781L243.769 291.594H252.556V291.569Z" fill="#2C333A"/>
<path d="M252.705 92.3569C250.335 76.6031 238.265 68.7015 224.739 70.4492C213.953 70.0554 204.228 81.0092 202.87 92.3815C202.698 93.5138 194.059 150.425 194.059 150.425H261.517L252.705 92.3569Z" fill="#03650C"/>
<mask id="mask3_4075_7643" style="mask-type:luminance" maskUnits="userSpaceOnUse" x="194" y="70" width="68" height="81">
<path d="M252.705 92.3569C250.335 76.6031 238.265 68.7015 224.739 70.4492C213.953 70.0554 204.228 81.0092 202.87 92.3815C202.698 93.5138 194.059 150.425 194.059 150.425H261.517L252.705 92.3569Z" fill="white"/>
</mask>
<g mask="url(#mask3_4075_7643)">
<path d="M220.766 151.877L233.182 138.609L207.166 96.4922L216.052 135.581L189.395 154.289L220.766 151.877Z" fill="#0B5812"/>
</g>
<path d="M207.175 96.4641L156.477 119.012L175.085 160.625L225.784 138.077L207.175 96.4641Z" fill="#F3AC4A"/>
<path d="M185.765 105.981L177.875 109.49L180.67 115.74L188.56 112.231L185.765 105.981Z" fill="#FDF1E6"/>
<path d="M170.758 154.289C173.448 154.88 178.607 154.708 179.101 158.351L170.758 158.769V154.289Z" fill="#F4D2C6"/>
<path d="M220.766 70.8923C223.209 78.08 232.391 78.08 234.81 70.8923C234.835 70.8923 228.812 67.6431 220.766 70.8923Z" fill="#F4D2C6"/>
<path d="M198.402 150.449H257.542L198.674 161.846L198.402 150.449Z" fill="#3A3D38"/>
<path d="M220.763 70.8923L227.477 76.3077L224.713 78.0554C220.294 80.3693 219.554 74.2646 218.493 71.5323C218.468 71.5323 219.628 71.0154 220.763 70.8923Z" fill="#F3F5FB"/>
<path d="M229.156 76.1846L231.773 77.7846C233.599 78.9169 236.018 77.8585 236.413 75.7662L237.228 71.5816C237.228 71.5816 235.401 70.9662 234.833 70.8923L229.156 76.1846Z" fill="#F3F5FB"/>
<path d="M149.975 213.046H73.8281V304.788H149.975V213.046Z" fill="#00920D"/>
<path d="M117.789 213.046H106.016V221.957H117.789V213.046Z" fill="#FDF1E6"/>
<path d="M189.713 213.046H149.949V304.788H189.713V213.046Z" fill="#03650C"/>
<path d="M177 213.046H166.93V221.957H177V213.046Z" fill="#FDF1E6"/>
<path d="M456.187 61.4154H366.465C364.021 61.4154 362.047 59.4462 362.047 57.0092V27.4215C362.047 24.9846 364.021 23.0154 366.465 23.0154H456.187C458.631 23.0154 460.605 24.9846 460.605 27.4215V57.0338C460.605 59.4462 458.631 61.4154 456.187 61.4154Z" fill="white"/>
<path d="M453.051 29.3909H369.574V34.2155H453.051V29.3909Z" fill="#D2D8E0"/>
<path d="M453.051 39.8032H369.574V44.6278H453.051V39.8032Z" fill="#D2D8E0"/>
<path d="M424.987 50.2156H369.574V55.0402H424.987V50.2156Z" fill="#D2D8E0"/>
<path d="M146.766 67.7662C140.052 124.628 107.693 124.578 101.004 67.7662C101.498 37.7846 146.247 37.7846 146.766 67.7662Z" fill="#03650C"/>
<path d="M136.127 66.5847C135.856 82.6339 111.889 82.6339 111.617 66.5847C111.913 50.5108 135.856 50.5108 136.127 66.5847Z" fill="white"/>
<path d="M151.43 180.923H80.9114C79.6526 180.923 78.6406 179.914 78.6406 178.658V154.141C78.6406 152.886 79.6526 151.877 80.9114 151.877H151.43C152.689 151.877 153.701 152.886 153.701 154.141V178.658C153.701 179.914 152.689 180.923 151.43 180.923Z" fill="#E5E8E6"/>
<path d="M147.924 177.994H78.7383C76.8624 177.994 75.332 176.468 75.332 174.597V151.778C75.332 149.907 76.8624 148.381 78.7383 148.381H147.924C149.8 148.381 151.33 149.907 151.33 151.778V174.597C151.33 176.468 149.8 177.994 147.924 177.994Z" fill="white"/>
<path d="M145.506 153.28H81.1328V156.997H145.506V153.28Z" fill="#D2D8E0"/>
<path d="M145.506 161.304H81.1328V165.021H145.506V161.304Z" fill="#D2D8E0"/>
<path d="M123.859 169.354H81.1328V173.07H123.859V169.354Z" fill="#D2D8E0"/>
<path d="M348.965 225.822H310.953V252.357H348.965C350.643 252.357 352.025 251.003 352.025 249.305V228.849C352.025 227.175 350.643 225.822 348.965 225.822Z" fill="#0A9B3B"/>
<path d="M345.336 248.443H283.358C281.679 248.443 280.297 247.089 280.297 245.391V224.935C280.297 223.262 281.654 221.883 283.358 221.883H345.336C347.014 221.883 348.397 223.237 348.397 224.935V245.391C348.397 247.089 347.014 248.443 345.336 248.443Z" fill="white"/>
<path d="M343.163 226.314H285.504V229.637H343.163V226.314Z" fill="#D2D8E0"/>
<path d="M343.163 233.501H285.504V236.825H343.163V233.501Z" fill="#D2D8E0"/>
<path d="M323.787 240.714H285.504V244.037H323.787V240.714Z" fill="#D2D8E0"/>
<path d="M0 305.083C210.199 304.271 429.801 304.246 640 305.083C429.801 305.895 210.199 305.895 0 305.083Z" fill="#152E60"/>
</g>
<defs>
<clipPath id="clip0_4075_7643">
<rect width="640" height="312" fill="white"/>
</clipPath>
</defs>
</svg>
